<svg width="124" height="95" viewBox="0 0 124 95" fill="none" xmlns="http://www.w3.org/2000/svg">
<g clip-path="url(#clip0_17_178)">
<path d="M61.8113 0.147827C46.1655 0.147827 33.4824 12.8309 33.4824 28.4767C33.4785 31.7169 34.0318 34.9337 35.1181 37.9864L43.6915 32.519V12.5632L71.8375 26.4796V54.9782C77.2177 52.9407 81.8503 49.3141 85.1196 44.5802C88.3889 39.8464 90.14 34.2297 90.1402 28.4767C90.1402 12.8309 77.4571 0.147827 61.8113 0.147827Z" fill="#33455E"/>
<path d="M69.8701 27.7019L45.6611 15.7328V31.2615L49.9274 28.5403V54.1976C56.181 57.0769 63.2666 57.5904 69.8701 55.6431V27.7019Z" fill="#33455E"/>
<path d="M43.6686 34.8671L35.8589 39.8488C37.6254 43.8677 40.2984 47.4231 43.6686 50.2364V34.8671Z" fill="#33455E"/>
<path d="M45.6367 51.7339C46.3858 52.2548 47.1593 52.74 47.9571 53.1896V32.1306L45.6367 33.6098V51.7339Z" fill="#33455E"/>
</g>
<path d="M16.3228 70.2001V73.3446H10.3071V89.8055H7.03955V73.3446H1.01025V70.2001H16.3228ZM28.6001 82.6688C28.6001 83.2977 28.5728 83.7352 28.5181 83.9813H18.0181C18.2186 85.0022 18.6652 85.8042 19.3579 86.3876C20.0506 86.9709 20.9393 87.2626 22.0239 87.2626C22.8625 87.2626 23.5825 87.0803 24.1841 86.7157C24.7948 86.3511 25.1685 85.8772 25.3052 85.2938H28.436C28.1808 86.7339 27.4608 87.8915 26.2759 88.7665C25.091 89.6415 23.6554 90.079 21.9692 90.079C20.6476 90.079 19.4445 89.7691 18.3599 89.1493C17.2752 88.5204 16.4185 87.6545 15.7896 86.5516C15.1698 85.4488 14.8599 84.2274 14.8599 82.8876C14.8599 81.5842 15.1698 80.3947 15.7896 79.3192C16.4185 78.2346 17.2707 77.3824 18.3462 76.7626C19.4308 76.1428 20.6203 75.8329 21.9146 75.8329C23.1359 75.8329 24.2524 76.12 25.2642 76.6942C26.285 77.2684 27.0962 78.0842 27.6978 79.1415C28.2993 80.1897 28.6001 81.3654 28.6001 82.6688ZM18.1001 81.3153H25.2095C25.0728 80.5223 24.6899 79.8843 24.061 79.4012C23.4412 78.9091 22.6665 78.663 21.7368 78.663C20.8162 78.663 20.0369 78.8954 19.3989 79.3602C18.7609 79.8251 18.328 80.4768 18.1001 81.3153ZM37.9927 75.8329C38.2935 75.8329 38.7264 75.8876 39.2915 75.9969V78.8544C38.7629 78.7268 38.3026 78.663 37.9106 78.663C36.8807 78.663 36.0194 79.0048 35.3267 79.6884C34.6431 80.3719 34.3013 81.3062 34.3013 82.4911V89.8055H31.1978V76.12H34.3013V77.9384C35.1672 76.5347 36.3976 75.8329 37.9927 75.8329ZM48.3286 75.8329C48.6294 75.8329 49.0623 75.8876 49.6274 75.9969V78.8544C49.0988 78.7268 48.6385 78.663 48.2466 78.663C47.2166 78.663 46.3553 79.0048 45.6626 79.6884C44.979 80.3719 44.6372 81.3062 44.6372 82.4911V89.8055H41.5337V76.12H44.6372V77.9384C45.5031 76.5347 46.7336 75.8329 48.3286 75.8329ZM52.0337 70.3505C52.4256 69.9585 52.895 69.7626 53.4419 69.7626C53.9888 69.7626 54.4582 69.9585 54.8501 70.3505C55.2511 70.7424 55.4517 71.2072 55.4517 71.745C55.4517 72.301 55.2511 72.7749 54.8501 73.1669C54.4582 73.5588 53.9888 73.7548 53.4419 73.7548C52.895 73.7548 52.4256 73.5588 52.0337 73.1669C51.6418 72.7749 51.4458 72.301 51.4458 71.745C51.4458 71.2072 51.6418 70.7424 52.0337 70.3505ZM51.8696 76.12H54.9731V89.8055H51.8696V76.12ZM66.2798 79.0868H62.6841V84.5966C62.6841 85.426 62.9119 86.0412 63.3677 86.4423C63.8325 86.8342 64.466 87.0302 65.2681 87.0302C65.66 87.0302 65.9972 86.9937 66.2798 86.9208V89.8055C65.7967 89.9149 65.2362 89.9696 64.5981 89.9696C63.0578 89.9696 61.8319 89.5093 60.9204 88.5887C60.009 87.6682 59.5532 86.3557 59.5532 84.6512V79.0868H56.9556V76.12H59.5532V72.4423H62.6841V76.12H66.2798V79.0868ZM69.3423 77.8837C70.7004 76.5165 72.382 75.8329 74.3872 75.8329C76.3924 75.8329 78.0786 76.5165 79.4458 77.8837C80.813 79.2509 81.4966 80.9462 81.4966 82.9696C81.4966 84.993 80.813 86.6838 79.4458 88.0419C78.0786 89.3999 76.3924 90.079 74.3872 90.079C72.382 90.079 70.7004 89.3999 69.3423 88.0419C67.9842 86.6838 67.3052 84.993 67.3052 82.9696C67.3052 80.9462 67.9842 79.2509 69.3423 77.8837ZM77.2583 80.0165C76.4836 79.2235 75.5265 78.827 74.3872 78.827C73.2479 78.827 72.2954 79.2235 71.5298 80.0165C70.7642 80.8094 70.3813 81.7938 70.3813 82.9696C70.3813 84.1363 70.7642 85.1161 71.5298 85.9091C72.3045 86.6929 73.257 87.0848 74.3872 87.0848C75.5265 87.0848 76.4836 86.6884 77.2583 85.8954C78.033 85.1024 78.4204 84.1272 78.4204 82.9696C78.4204 81.7938 78.033 80.8094 77.2583 80.0165ZM90.9028 75.8329C91.2036 75.8329 91.6366 75.8876 92.2017 75.9969V78.8544C91.673 78.7268 91.2127 78.663 90.8208 78.663C89.7909 78.663 88.9295 79.0048 88.2368 79.6884C87.5532 80.3719 87.2114 81.3062 87.2114 82.4911V89.8055H84.1079V76.12H87.2114V77.9384C88.0773 76.5347 89.3078 75.8329 90.9028 75.8329ZM94.6079 70.3505C94.9998 69.9585 95.4692 69.7626 96.0161 69.7626C96.563 69.7626 97.0324 69.9585 97.4243 70.3505C97.8254 70.7424 98.0259 71.2072 98.0259 71.745C98.0259 72.301 97.8254 72.7749 97.4243 73.1669C97.0324 73.5588 96.563 73.7548 96.0161 73.7548C95.4692 73.7548 94.9998 73.5588 94.6079 73.1669C94.216 72.7749 94.02 72.301 94.02 71.745C94.02 71.2072 94.216 70.7424 94.6079 70.3505ZM94.4438 76.12H97.5474V89.8055H94.4438V76.12ZM111.534 76.12H114.678V89.8055H111.534V87.3993C111.032 88.2652 110.372 88.9305 109.551 89.3954C108.731 89.8511 107.778 90.079 106.694 90.079C105.5 90.079 104.402 89.7645 103.399 89.1356C102.396 88.4976 101.603 87.6317 101.02 86.538C100.437 85.4351 100.145 84.2365 100.145 82.9423C100.145 81.648 100.437 80.454 101.02 79.3602C101.603 78.2665 102.396 77.4052 103.399 76.7762C104.402 76.1473 105.5 75.8329 106.694 75.8329C107.778 75.8329 108.731 76.0653 109.551 76.5302C110.372 76.995 111.032 77.6604 111.534 78.5262V76.12ZM107.364 87.1122C108.549 87.1122 109.538 86.7157 110.331 85.9227C111.133 85.1206 111.534 84.1272 111.534 82.9423C111.534 81.7665 111.133 80.7821 110.331 79.9891C109.538 79.1962 108.549 78.7997 107.364 78.7997C106.206 78.7997 105.226 79.2053 104.424 80.0165C103.622 80.8186 103.221 81.7938 103.221 82.9423C103.221 84.1089 103.622 85.0979 104.424 85.9091C105.226 86.7111 106.206 87.1122 107.364 87.1122ZM121.09 70.2001V89.8055H117.987V70.2001H121.09Z" fill="#33455E"/>
<defs>
<clipPath id="clip0_17_178">
<rect width="56.6577" height="56.6577" fill="white" transform="translate(33.4844 0.147827)"/>
</clipPath>
</defs>
</svg>
