<svg width="502" height="312" viewBox="0 0 502 312" fill="none" xmlns="http://www.w3.org/2000/svg">
<g clip-path="url(#clip0_280_605)">
<path d="M271.581 40.4847L255.878 56.1515L300.951 101.225L235.929 166.248C227.648 174.528 227.644 187.957 235.929 196.242C244.209 204.522 257.637 204.522 265.922 196.242L345.944 116.22C354.224 107.94 354.224 94.5109 345.944 86.2262L279.13 19.4166C279.13 19.4166 280.659 30.896 271.585 40.4847" fill="#EDF6FF"/>
<path d="M230.532 161.97L246.005 146.533L200.931 101.46L266.184 36.2023C274.464 27.9222 274.468 14.4935 266.184 6.20882C257.904 -2.07132 244.475 -2.07132 236.19 6.20882L156.168 86.2306C147.888 94.5107 147.654 108.174 155.938 116.454L222.978 183.512C222.978 183.512 221.457 171.563 230.532 161.975" fill="#EDF6FF"/>
</g>
<path d="M40.4946 296.024C33.465 296.024 27.0869 294.378 21.3604 291.086C15.6681 287.794 11.1931 283.251 7.93553 277.456C4.71219 271.661 3.10053 265.214 3.10053 258.116C3.10053 251.018 4.71219 244.571 7.93553 238.776C11.1931 232.981 15.6681 228.437 21.3604 225.145C27.0869 221.853 33.465 220.207 40.4946 220.207C46.2212 220.207 51.6391 221.373 56.7484 223.705C61.8577 226.002 66.0926 229.226 69.4531 233.375C72.8479 237.49 74.8882 242.085 75.574 247.16H58.1886C57.1942 243.696 55.051 240.867 51.7591 238.673C48.5015 236.478 44.7466 235.381 40.4946 235.381C34.4251 235.381 29.333 237.558 25.2181 241.913C21.1375 246.234 19.0972 251.635 19.0972 258.116C19.0972 264.597 21.1375 270.015 25.2181 274.37C29.333 278.724 34.4251 280.902 40.4946 280.902C44.7809 280.902 48.5701 279.702 51.862 277.301C55.1882 274.901 57.3314 271.849 58.2915 268.146H75.7798C74.3739 276.341 70.379 283.045 63.7952 288.257C57.2456 293.435 49.4788 296.024 40.4946 296.024ZM108.647 242.222C112.385 242.222 115.9 242.908 119.192 244.279C122.518 245.651 125.364 247.537 127.73 249.937C130.131 252.303 132.017 255.167 133.388 258.527C134.794 261.853 135.497 265.403 135.497 269.175C135.497 274.215 134.314 278.793 131.948 282.908C129.616 287.023 126.393 290.246 122.278 292.578C118.197 294.875 113.654 296.024 108.647 296.024C101.001 296.024 94.6054 293.47 89.4618 288.36C84.3182 283.251 81.7464 276.856 81.7464 269.175C81.7464 261.493 84.3182 255.081 89.4618 249.937C94.6054 244.794 101.001 242.222 108.647 242.222ZM108.647 256.418C105.116 256.418 102.167 257.636 99.8005 260.07C97.4687 262.471 96.3028 265.505 96.3028 269.175C96.3028 272.741 97.4687 275.741 99.8005 278.176C102.167 280.61 105.116 281.828 108.647 281.828C112.111 281.828 115.026 280.61 117.392 278.176C119.758 275.741 120.941 272.741 120.941 269.175C120.941 265.505 119.758 262.471 117.392 260.07C115.06 257.636 112.145 256.418 108.647 256.418ZM172.737 242.222C179.355 242.222 184.55 244.314 188.322 248.497C192.094 252.646 193.98 258.39 193.98 265.728V294.995H179.115V267.631C179.115 264.271 178.172 261.562 176.286 259.505C174.434 257.447 171.982 256.418 168.931 256.418C165.844 256.418 163.358 257.447 161.472 259.505C159.621 261.528 158.695 264.237 158.695 267.631V294.995H143.83V243.251H158.695V250.04C162.124 244.828 166.805 242.222 172.737 242.222ZM229.111 296.024C221.464 296.024 215.069 293.47 209.925 288.36C204.782 283.251 202.21 276.856 202.21 269.175C202.21 261.493 204.782 255.081 209.925 249.937C215.069 244.794 221.464 242.222 229.111 242.222C235.592 242.222 241.25 244.194 246.085 248.137C250.92 252.081 253.68 257.018 254.366 262.951H239.295C238.781 261.03 237.564 259.47 235.643 258.27C233.757 257.036 231.58 256.418 229.111 256.418C225.579 256.418 222.63 257.636 220.264 260.07C217.932 262.471 216.766 265.505 216.766 269.175C216.766 272.741 217.932 275.741 220.264 278.176C222.63 280.61 225.579 281.828 229.111 281.828C231.58 281.828 233.774 281.176 235.695 279.873C237.649 278.57 238.884 276.907 239.398 274.884H254.469C254.092 278.93 252.72 282.582 250.354 285.84C247.988 289.063 244.936 291.566 241.198 293.349C237.495 295.133 233.466 296.024 229.111 296.024ZM290.989 242.222C292.052 242.222 293.715 242.428 295.978 242.839V256.315C293.886 255.835 292.086 255.595 290.577 255.595C286.771 255.595 283.65 256.778 281.216 259.144C278.815 261.476 277.615 264.922 277.615 269.483V294.995H262.75V243.251H277.615V249.166C280.804 244.537 285.262 242.222 290.989 242.222ZM349.42 267.374C349.42 269.192 349.317 270.958 349.111 272.672H310.689C311.203 276.033 312.66 278.724 315.061 280.748C317.461 282.737 320.393 283.731 323.856 283.731C326.702 283.731 329.017 283.182 330.8 282.085C332.618 280.953 333.732 279.462 334.143 277.61H348.7C347.843 283.165 345.185 287.623 340.727 290.983C336.269 294.344 330.783 296.024 324.268 296.024C319.261 296.024 314.666 294.841 310.483 292.475C306.334 290.075 303.059 286.8 300.659 282.651C298.258 278.467 297.058 273.872 297.058 268.866C297.058 261.356 299.647 255.047 304.825 249.937C310.037 244.794 316.415 242.222 323.959 242.222C328.554 242.222 332.806 243.319 336.715 245.514C340.624 247.709 343.711 250.743 345.974 254.618C348.271 258.493 349.42 262.745 349.42 267.374ZM311.409 263.208H333.938C333.732 260.636 332.6 258.493 330.543 256.778C328.485 255.064 326.068 254.207 323.29 254.207C320.376 254.207 317.89 254.961 315.832 256.47C313.775 257.979 312.3 260.225 311.409 263.208ZM378.276 296.024C371.452 296.024 365.88 294.395 361.559 291.138C357.273 287.846 354.872 283.302 354.358 277.507H368.606C368.743 279.256 369.652 280.662 371.332 281.725C373.012 282.788 375.087 283.319 377.556 283.319C379.75 283.319 381.448 282.977 382.648 282.291C383.882 281.605 384.499 280.645 384.499 279.41C384.499 278.279 383.968 277.353 382.905 276.633C381.842 275.913 380.453 275.381 378.739 275.038C377.024 274.661 375.121 274.301 373.029 273.958C370.972 273.615 368.914 273.135 366.857 272.518C364.799 271.901 362.913 271.112 361.199 270.152C359.484 269.192 358.096 267.786 357.033 265.934C355.97 264.048 355.438 261.802 355.438 259.196C355.438 254.292 357.29 250.246 360.993 247.057C364.731 243.834 369.72 242.222 375.961 242.222C381.859 242.222 386.917 243.731 391.135 246.748C395.352 249.766 397.77 254.018 398.387 259.505H383.419C383.316 258.133 382.562 256.967 381.156 256.007C379.75 255.047 377.916 254.567 375.652 254.567C373.869 254.567 372.429 254.875 371.332 255.493C370.269 256.075 369.737 256.95 369.737 258.116C369.737 259.179 370.269 260.036 371.332 260.688C372.429 261.305 373.835 261.768 375.55 262.076C377.264 262.385 379.15 262.694 381.208 263.002C383.265 263.311 385.322 263.791 387.38 264.442C389.472 265.094 391.375 265.968 393.089 267.066C394.804 268.129 396.193 269.706 397.256 271.798C398.353 273.889 398.902 276.393 398.902 279.307C398.902 284.04 396.913 288.017 392.935 291.241C388.992 294.43 384.105 296.024 378.276 296.024ZM441.131 243.251H455.996V294.995H441.131V288.154C437.873 293.401 433.209 296.024 427.14 296.024C420.522 296.024 415.31 293.932 411.503 289.749C407.731 285.565 405.845 279.805 405.845 272.466V243.251H420.71V270.563C420.71 273.992 421.636 276.736 423.488 278.793C425.34 280.816 427.826 281.828 430.946 281.828C433.998 281.828 436.45 280.816 438.302 278.793C440.188 276.736 441.131 273.992 441.131 270.563V243.251ZM494.676 242.222C495.739 242.222 497.402 242.428 499.665 242.839V256.315C497.573 255.835 495.773 255.595 494.264 255.595C490.458 255.595 487.337 256.778 484.903 259.144C482.502 261.476 481.302 264.922 481.302 269.483V294.995H466.437V243.251H481.302V249.166C484.491 244.537 488.949 242.222 494.676 242.222Z" fill="#EDF6FF"/>
<defs>
<clipPath id="clip0_280_605">
<rect width="202.315" height="202.455" fill="white" transform="translate(149.842)"/>
</clipPath>
</defs>
</svg>
