<svg width="105" height="97" viewBox="0 0 105 97" fill="none" xmlns="http://www.w3.org/2000/svg">
<path d="M74.9331 58.1966H29.6948C28.827 58.1966 28.123 57.4926 28.123 56.6248V24.9452C28.123 11.5856 38.9523 0.756348 52.3119 0.756348H52.3173C65.6756 0.756348 76.5062 11.5856 76.5062 24.9452V56.6248C76.5062 57.4926 75.8022 58.1966 74.9344 58.1966H74.9331Z" fill="#33455E"/>
<path d="M51.0003 13.2516L51.9886 11.2926C52.1226 11.0273 52.5031 11.0273 52.6371 11.2926L53.6254 13.2516C54.6976 15.3799 56.4251 17.106 58.5547 18.1796L60.515 19.1679C60.7817 19.3019 60.7817 19.6823 60.515 19.8163L58.5547 20.8046C56.4265 21.8769 54.699 23.6044 53.6254 25.7326L52.6371 27.6916C52.5031 27.9569 52.1226 27.9569 51.9886 27.6916L51.0003 25.7326C49.9281 23.6044 48.2006 21.8782 46.071 20.8046L44.1107 19.8163C43.844 19.6823 43.844 19.3019 44.1107 19.1679L46.071 18.1796C48.1992 17.1073 49.9267 15.3799 51.0003 13.2516Z" fill="#EDF6FF"/>
<path d="M76.4946 23.7607H76.5027V56.6235C76.5027 57.4914 75.7987 58.1953 74.9309 58.1953H42.0586C42.0586 39.1767 57.476 23.7593 76.4946 23.7593V23.7607Z" fill="#EDF6FF"/>
<path d="M74.5072 25.8158V56.2012H44.1137C44.3344 52.5255 45.1697 48.9582 46.602 45.5695C48.2361 41.7071 50.5755 38.2372 53.5553 35.2574C56.5351 32.2776 60.005 29.9382 63.8674 28.3041C67.2588 26.8704 70.8288 26.0351 74.5072 25.8145M76.5027 23.7593H76.4946C57.476 23.7593 42.0586 39.1767 42.0586 58.1953H74.9309C75.7987 58.1953 76.5027 57.4914 76.5027 56.6235V23.7607V23.7593Z" fill="#33455E"/>
<path d="M28.1256 23.7502H28.1216V56.6225C28.1216 57.4903 28.8256 58.1943 29.6934 58.1943H62.5657V58.1903C62.5657 39.1689 47.1469 23.7502 28.1256 23.7502Z" fill="#EDF6FF"/>
<path d="M30.1171 25.8053C33.7941 26.026 37.3642 26.8613 40.7542 28.295C44.618 29.9291 48.0879 32.2685 51.0676 35.2483C54.0474 38.228 56.3882 41.6979 58.0209 45.5617C59.4546 48.9504 60.2886 52.5191 60.5106 56.1988H30.1171V25.8053ZM28.1256 23.7502H28.1216V56.6225C28.1216 57.4903 28.8256 58.1943 29.6934 58.1943H62.5657V58.1902C62.5657 39.1689 47.1469 23.7502 28.1256 23.7502Z" fill="#33455E"/>
<path d="M30.1165 32.9818C36.1194 33.4461 41.7012 36.0076 46.0037 40.3114C50.3062 44.6139 52.8676 50.1944 53.3333 56.1986H30.1165V32.9818ZM28.1237 30.9091H28.1196V56.6224C28.1196 57.4902 28.8236 58.1941 29.6914 58.1941H55.4047V58.1901C55.4047 43.1233 43.1905 30.9077 28.1223 30.9077L28.1237 30.9091Z" fill="#33455E"/>
<path d="M30.1171 40.1747C34.2057 40.6187 37.9924 42.4274 40.9423 45.3761C43.8923 48.3247 45.6997 52.1114 46.1438 56.2013H30.1171V40.1747ZM28.1243 38.0708H28.1216V56.625C28.1216 57.4928 28.8256 58.1968 29.6934 58.1968H48.2476V58.1941C48.2476 47.0805 39.2379 38.0708 28.1243 38.0708Z" fill="#33455E"/>
<path d="M52.3146 3.96086C57.9208 3.96086 63.1899 6.14323 67.1539 10.1072C71.118 14.0713 73.3003 19.3417 73.3003 24.9466V54.9907H31.3276V24.9466C31.3276 19.3404 33.5099 14.0713 37.4739 10.1072C41.438 6.14323 46.7084 3.96086 52.3133 3.96086M52.3146 0.756348C38.9537 0.756348 28.123 11.587 28.123 24.9479V56.6235C28.123 57.4913 28.827 58.1953 29.6948 58.1953H74.933C75.8008 58.1953 76.5048 57.4913 76.5048 56.6235V24.9479C76.5062 11.587 65.6742 0.756348 52.3146 0.756348Z" fill="#33455E"/>
<path d="M20.6978 80.2184C20.7889 80.7471 20.8345 81.3623 20.8345 82.0641C20.8345 83.8688 20.4152 85.4912 19.5767 86.9313C18.7472 88.3714 17.6079 89.488 16.1587 90.2809C14.7186 91.0739 13.1053 91.4704 11.3188 91.4704C9.93343 91.4704 8.62549 91.2106 7.39502 90.6911C6.17367 90.1716 5.12549 89.4652 4.25049 88.572C3.3846 87.6787 2.69645 86.6078 2.18604 85.3591C1.68473 84.1104 1.43408 82.7796 1.43408 81.3669C1.43408 79.9632 1.68473 78.6416 2.18604 77.402C2.69645 76.1533 3.38916 75.0869 4.26416 74.2028C5.13916 73.3096 6.18734 72.6078 7.40869 72.0974C8.63916 71.5778 9.94255 71.3181 11.3188 71.3181C12.7498 71.3181 14.1216 71.6143 15.4341 72.2067C16.7557 72.7992 17.854 73.5876 18.729 74.572C19.6131 75.5563 20.1737 76.6182 20.4106 77.7575H16.7192C16.3638 76.8005 15.6711 76.0212 14.6411 75.4196C13.6203 74.8089 12.5129 74.5036 11.3188 74.5036C9.4777 74.5036 7.93278 75.1599 6.68408 76.4724C5.4445 77.7849 4.82471 79.4164 4.82471 81.3669C4.82471 82.6612 5.10726 83.8369 5.67236 84.8942C6.24658 85.9424 7.04411 86.7718 8.06494 87.3825C9.09489 87.9841 10.2524 88.2849 11.5376 88.2849C13.0688 88.2849 14.3768 87.8337 15.4614 86.9313C16.5552 86.0199 17.2342 84.8395 17.4985 83.3903H11.3735V80.2184H20.6978ZM36.6665 84.0602C36.6665 84.6891 36.6392 85.1266 36.5845 85.3727H26.0845C26.285 86.3936 26.7316 87.1957 27.4243 87.779C28.117 88.3623 29.0057 88.654 30.0903 88.654C30.9289 88.654 31.6489 88.4717 32.2505 88.1071C32.8612 87.7425 33.2349 87.2686 33.3716 86.6852H36.5024C36.2472 88.1253 35.5272 89.2829 34.3423 90.1579C33.1574 91.0329 31.7218 91.4704 30.0356 91.4704C28.714 91.4704 27.5109 91.1605 26.4263 90.5407C25.3416 89.9118 24.4849 89.0459 23.856 87.9431C23.2362 86.8402 22.9263 85.6188 22.9263 84.279C22.9263 82.9756 23.2362 81.7862 23.856 80.7106C24.4849 79.626 25.3371 78.7738 26.4126 78.154C27.4972 77.5342 28.6867 77.2243 29.981 77.2243C31.2023 77.2243 32.3188 77.5114 33.3306 78.0856C34.3514 78.6599 35.1626 79.4756 35.7642 80.5329C36.3657 81.5811 36.6665 82.7569 36.6665 84.0602ZM26.1665 82.7067H33.2759C33.1392 81.9138 32.7563 81.2757 32.1274 80.7927C31.5076 80.3005 30.7329 80.0544 29.8032 80.0544C28.8826 80.0544 28.1034 80.2868 27.4653 80.7516C26.8273 81.2165 26.3944 81.8682 26.1665 82.7067ZM55.1372 77.2243C56.8052 77.2243 58.1541 77.7347 59.1841 78.7556C60.2231 79.7673 60.7427 81.1253 60.7427 82.8298V91.197H57.5708V83.527C57.5708 82.4971 57.3065 81.6905 56.7778 81.1071C56.2492 80.5147 55.5246 80.2184 54.604 80.2184C53.7563 80.2184 53.0363 80.4964 52.4438 81.0524C51.8514 81.6084 51.5552 82.4333 51.5552 83.527V91.197H48.4243V83.527C48.4243 82.4971 48.1554 81.6905 47.6177 81.1071C47.0799 80.5147 46.3462 80.2184 45.4165 80.2184C44.578 80.2184 43.8579 80.4964 43.2563 81.0524C42.6639 81.6084 42.3677 82.4333 42.3677 83.527V91.197H39.2642V77.5114H42.3677V79.4391C42.8325 78.6644 43.4386 78.1039 44.186 77.7575C44.9425 77.402 45.7264 77.2243 46.5376 77.2243C48.5519 77.2243 49.9647 78.0264 50.7759 79.6306C51.1587 78.8923 51.7466 78.3089 52.5396 77.8806C53.3325 77.4431 54.1984 77.2243 55.1372 77.2243ZM79.8833 77.2243C81.5513 77.2243 82.9002 77.7347 83.9302 78.7556C84.9692 79.7673 85.4888 81.1253 85.4888 82.8298V91.197H82.3169V83.527C82.3169 82.4971 82.0526 81.6905 81.5239 81.1071C80.9953 80.5147 80.2707 80.2184 79.3501 80.2184C78.5024 80.2184 77.7824 80.4964 77.1899 81.0524C76.5975 81.6084 76.3013 82.4333 76.3013 83.527V91.197H73.1704V83.527C73.1704 82.4971 72.9015 81.6905 72.3638 81.1071C71.826 80.5147 71.0923 80.2184 70.1626 80.2184C69.3241 80.2184 68.604 80.4964 68.0024 81.0524C67.41 81.6084 67.1138 82.4333 67.1138 83.527V91.197H64.0103V77.5114H67.1138V79.4391C67.5786 78.6644 68.1847 78.1039 68.9321 77.7575C69.6886 77.402 70.4725 77.2243 71.2837 77.2243C73.298 77.2243 74.7108 78.0264 75.522 79.6306C75.9048 78.8923 76.4927 78.3089 77.2856 77.8806C78.0786 77.4431 78.9445 77.2243 79.8833 77.2243ZM99.4478 77.5114H102.592V91.197H99.4478V88.7907C98.9465 89.6566 98.2856 90.322 97.4653 90.7868C96.645 91.2425 95.6925 91.4704 94.6079 91.4704C93.4139 91.4704 92.3156 91.1559 91.313 90.527C90.3104 89.889 89.5174 89.0231 88.9341 87.9294C88.3507 86.8265 88.0591 85.628 88.0591 84.3337C88.0591 83.0394 88.3507 81.8454 88.9341 80.7516C89.5174 79.6579 90.3104 78.7966 91.313 78.1677C92.3156 77.5388 93.4139 77.2243 94.6079 77.2243C95.6925 77.2243 96.645 77.4567 97.4653 77.9216C98.2856 78.3864 98.9465 79.0518 99.4478 79.9177V77.5114ZM95.2778 88.5036C96.4627 88.5036 97.4517 88.1071 98.2446 87.3141C99.0467 86.5121 99.4478 85.5186 99.4478 84.3337C99.4478 83.1579 99.0467 82.1735 98.2446 81.3806C97.4517 80.5876 96.4627 80.1911 95.2778 80.1911C94.1203 80.1911 93.1405 80.5967 92.3384 81.4079C91.5363 82.21 91.1353 83.1852 91.1353 84.3337C91.1353 85.5003 91.5363 86.4893 92.3384 87.3005C93.1405 88.1026 94.1203 88.5036 95.2778 88.5036Z" fill="#33455E"/>
</svg>
