<svg width="139" height="37" viewBox="0 0 139 37" fill="none" xmlns="http://www.w3.org/2000/svg">
<path fill-rule="evenodd" clip-rule="evenodd" d="M36.4995 14.8364V22.1172H27.1311L33.7605 28.7465L28.6122 33.8948L21.9381 27.2207L21.9381 36.6786H14.6574V27.2651L8.02777 33.8948L2.87951 28.7465L9.50887 22.1172H0.0958437V14.8364L9.55387 14.8364L2.87094 8.15351L8.01919 3.00526L14.6574 9.64347V0.274963L21.9381 0.274963L21.9381 9.6879L28.6208 3.00525L33.769 8.15351L27.0861 14.8364L36.4995 14.8364ZM18.3068 23.6162L23.4551 18.4679L18.3068 13.3197L13.1586 18.4679L18.3068 23.6162Z" fill="#33455E"/>
<path d="M138.102 16.6645C138.243 17.4793 138.313 18.4276 138.313 19.5093C138.313 22.2909 137.667 24.7916 136.374 27.0113C135.096 29.231 133.34 30.9519 131.106 32.1741C128.887 33.3964 126.4 34.0075 123.646 34.0075C121.511 34.0075 119.495 33.6071 117.598 32.8063C115.716 32.0056 114.1 30.9168 112.752 29.54C111.417 28.1633 110.356 26.5125 109.57 24.5879C108.797 22.6632 108.411 20.6121 108.411 18.4346C108.411 16.2711 108.797 14.234 109.57 12.3234C110.356 10.3988 111.424 8.75509 112.773 7.39237C114.121 6.01561 115.737 4.93386 117.62 4.14714C119.516 3.34637 121.525 2.94598 123.646 2.94598C125.852 2.94598 127.966 3.40256 129.989 4.31572C132.026 5.22889 133.719 6.44409 135.068 7.96134C136.431 9.47859 137.295 11.1153 137.66 12.8713H131.97C131.422 11.3962 130.355 10.1951 128.767 9.26786C127.194 8.32661 125.487 7.85598 123.646 7.85598C120.809 7.85598 118.427 8.86748 116.503 10.8905C114.592 12.9135 113.637 15.4282 113.637 18.4346C113.637 20.4295 114.072 22.2418 114.943 23.8714C115.828 25.487 117.058 26.7654 118.631 27.7067C120.219 28.6339 122.003 29.0975 123.984 29.0975C126.344 29.0975 128.36 28.4021 130.031 27.0113C131.717 25.6064 132.764 23.7871 133.171 21.5534H123.731V16.6645H138.102Z" fill="#33455E"/>
<path d="M98.8647 3.36743H103.922V33.586H98.8647V20.3311H84.2401V33.586H79.1826V3.36743H84.2401V15.5054H98.8647V3.36743Z" fill="#33455E"/>
<path d="M74.4618 16.6645C74.6023 17.4793 74.6725 18.4276 74.6725 19.5093C74.6725 22.2909 74.0263 24.7916 72.7338 27.0113C71.4554 29.231 69.6993 30.9519 67.4656 32.1741C65.2459 33.3964 62.7593 34.0075 60.0057 34.0075C57.8704 34.0075 55.8544 33.6071 53.9578 32.8063C52.0753 32.0056 50.4597 30.9168 49.111 29.54C47.7764 28.1633 46.7158 26.5125 45.929 24.5879C45.1564 22.6632 44.77 20.6121 44.77 18.4346C44.77 16.2711 45.1564 14.234 45.929 12.3234C46.7158 10.3988 47.7834 8.75509 49.1321 7.39237C50.4808 6.01561 52.0964 4.93386 53.9789 4.14714C55.8755 3.34637 57.8844 2.94598 60.0057 2.94598C62.2114 2.94598 64.3257 3.40256 66.3487 4.31572C68.3857 5.22889 70.0786 6.44409 71.4273 7.96134C72.79 9.47859 73.654 11.1153 74.0192 12.8713H68.3296C67.7817 11.3962 66.714 10.1951 65.1265 9.26786C63.553 8.32661 61.8461 7.85598 60.0057 7.85598C57.1679 7.85598 54.7867 8.86748 52.862 10.8905C50.9514 12.9135 49.9961 15.4282 49.9961 18.4346C49.9961 20.4295 50.4316 22.2418 51.3026 23.8714C52.1877 25.487 53.4169 26.7654 54.9904 27.7067C56.5779 28.6339 58.3621 29.0975 60.3429 29.0975C62.7031 29.0975 64.7191 28.4021 66.3908 27.0113C68.0767 25.6064 69.1233 23.7871 69.5307 21.5534H60.09V16.6645H74.4618Z" fill="#33455E"/>
</svg>
