<svg width="207" height="124" viewBox="0 0 207 124" fill="none" xmlns="http://www.w3.org/2000/svg">
<path d="M118.202 33.283L88.7979 33.283" stroke="#0451FF" stroke-width="2.20531" stroke-linecap="round"/>
<path d="M110.851 33.283V9.75973C110.851 6.98748 110.851 5.60136 109.99 4.74013C109.129 3.87891 107.742 3.87891 104.97 3.87891H102.03C99.2575 3.87891 97.8714 3.87891 97.0102 4.74013C96.1489 5.60136 96.1489 6.98748 96.1489 9.75973V33.283" stroke="#0451FF" stroke-width="2.20531"/>
<path d="M115.629 17.8459C115.629 18.4549 116.123 18.9486 116.732 18.9486C117.341 18.9486 117.834 18.4549 117.834 17.8459H115.629ZM115.425 13.1957L114.812 14.1126L114.812 14.1126L115.425 13.1957ZM116.236 14.007L115.319 14.6196L115.319 14.6196L116.236 14.007ZM117.834 23.7267C117.834 23.1178 117.341 22.6241 116.732 22.6241C116.123 22.6241 115.629 23.1178 115.629 23.7267H117.834ZM111.586 13.8028C112.641 13.8028 113.35 13.8042 113.89 13.8591C114.412 13.9122 114.653 14.006 114.812 14.1126L116.037 12.2789C115.455 11.8899 114.809 11.736 114.113 11.6651C113.436 11.5962 112.595 11.5975 111.586 11.5975V13.8028ZM117.834 17.8459C117.834 16.8364 117.836 15.9963 117.767 15.3187C117.696 14.6226 117.542 13.9766 117.153 13.3944L115.319 14.6196C115.426 14.779 115.52 15.0201 115.573 15.5418C115.628 16.082 115.629 16.7905 115.629 17.8459H117.834ZM114.812 14.1126C115.013 14.2466 115.185 14.4189 115.319 14.6196L117.153 13.3944C116.858 12.9529 116.479 12.5739 116.037 12.2789L114.812 14.1126ZM115.629 23.7267V33.2831H117.834V23.7267H115.629Z" fill="#0451FF"/>
<path d="M91.5749 13.1957L92.1875 14.1126L92.1875 14.1126L91.5749 13.1957ZM90.7636 14.007L91.6804 14.6196L91.6804 14.6196L90.7636 14.007ZM91.3707 30.3427C91.3707 29.7337 90.877 29.24 90.2681 29.24C89.6591 29.24 89.1654 29.7337 89.1654 30.3427H91.3707ZM89.1654 24.4618C89.1654 25.0708 89.6591 25.5645 90.2681 25.5645C90.877 25.5645 91.3707 25.0708 91.3707 24.4618H89.1654ZM95.4138 11.5975C94.4043 11.5975 93.5642 11.5962 92.8865 11.6651C92.1904 11.736 91.5445 11.8899 90.9623 12.2789L92.1875 14.1126C92.3469 14.006 92.588 13.9122 93.1097 13.8591C93.6499 13.8042 94.3584 13.8028 95.4138 13.8028V11.5975ZM91.3707 17.8459C91.3707 16.7905 91.3721 16.082 91.427 15.5418C91.4801 15.0201 91.5739 14.779 91.6804 14.6196L89.8468 13.3944C89.4578 13.9766 89.3038 14.6226 89.233 15.3187C89.1641 15.9963 89.1654 16.8364 89.1654 17.8459H91.3707ZM90.9623 12.2789C90.5208 12.5739 90.1418 12.9529 89.8468 13.3944L91.6804 14.6196C91.8145 14.4189 91.9868 14.2466 92.1875 14.1126L90.9623 12.2789ZM89.1654 30.3427V33.2831H91.3707V30.3427H89.1654ZM89.1654 17.8459V24.4618H91.3707V17.8459H89.1654Z" fill="#0451FF"/>
<path d="M103.5 33.2829V28.8723" stroke="#0451FF" stroke-width="2.20531" stroke-linecap="round"/>
<path d="M100.56 8.28955H106.44" stroke="#0451FF" stroke-width="2.20531" stroke-linecap="round"/>
<path d="M100.56 21.5212H101.295M106.44 21.5212H104.235" stroke="#0451FF" stroke-width="2.20531" stroke-linecap="round"/>
<path d="M106.44 12.7002H105.705M100.56 12.7002H102.765" stroke="#0451FF" stroke-width="2.20531" stroke-linecap="round"/>
<path d="M100.56 17.1108H106.44" stroke="#0451FF" stroke-width="2.20531" stroke-linecap="round"/>
<path d="M41.0273 67.4578C39.4258 67.4578 37.9727 67.0828 36.668 66.3328C35.3711 65.5828 34.3516 64.5476 33.6094 63.2273C32.875 61.907 32.5078 60.4382 32.5078 58.821C32.5078 57.2039 32.875 55.7351 33.6094 54.4148C34.3516 53.0945 35.3711 52.0593 36.668 51.3093C37.9727 50.5593 39.4258 50.1843 41.0273 50.1843C42.332 50.1843 43.5664 50.45 44.7305 50.9812C45.8945 51.5046 46.8594 52.239 47.625 53.1843C48.3984 54.1218 48.8633 55.1687 49.0195 56.325H45.0586C44.832 55.5359 44.3438 54.8914 43.5938 54.3914C42.8516 53.8914 41.9961 53.6414 41.0273 53.6414C39.6445 53.6414 38.4844 54.1375 37.5469 55.1296C36.6172 56.114 36.1523 57.3445 36.1523 58.821C36.1523 60.2976 36.6172 61.532 37.5469 62.5242C38.4844 63.5164 39.6445 64.0125 41.0273 64.0125C42.0039 64.0125 42.8672 63.739 43.6172 63.1921C44.375 62.6453 44.8633 61.95 45.082 61.1062H49.0664C48.7461 62.9734 47.8359 64.5007 46.3359 65.6882C44.8438 66.8679 43.0742 67.4578 41.0273 67.4578ZM56.5547 55.2C57.4062 55.2 58.207 55.3562 58.957 55.6687C59.7148 55.9812 60.3633 56.4109 60.9023 56.9578C61.4492 57.4968 61.8789 58.1492 62.1914 58.9148C62.5117 59.6726 62.6719 60.4812 62.6719 61.3406C62.6719 62.489 62.4023 63.532 61.8633 64.4695C61.332 65.407 60.5977 66.1414 59.6602 66.6726C58.7305 67.196 57.6953 67.4578 56.5547 67.4578C54.8125 67.4578 53.3555 66.8757 52.1836 65.7117C51.0117 64.5476 50.4258 63.0906 50.4258 61.3406C50.4258 59.5906 51.0117 58.1296 52.1836 56.9578C53.3555 55.7859 54.8125 55.2 56.5547 55.2ZM56.5547 58.4343C55.75 58.4343 55.0781 58.7117 54.5391 59.2664C54.0078 59.8132 53.7422 60.5046 53.7422 61.3406C53.7422 62.1531 54.0078 62.8367 54.5391 63.3914C55.0781 63.946 55.75 64.2234 56.5547 64.2234C57.3438 64.2234 58.0078 63.946 58.5469 63.3914C59.0859 62.8367 59.3555 62.1531 59.3555 61.3406C59.3555 60.5046 59.0859 59.8132 58.5469 59.2664C58.0156 58.7117 57.3516 58.4343 56.5547 58.4343ZM71.1562 55.2C72.6641 55.2 73.8477 55.6765 74.707 56.6296C75.5664 57.575 75.9961 58.8835 75.9961 60.5554V67.2234H72.6094V60.989C72.6094 60.2234 72.3945 59.6062 71.9648 59.1375C71.543 58.6687 70.9844 58.4343 70.2891 58.4343C69.5859 58.4343 69.0195 58.6687 68.5898 59.1375C68.168 59.5984 67.957 60.2156 67.957 60.989V67.2234H64.5703V55.4343H67.957V56.9812C68.7383 55.7937 69.8047 55.2 71.1562 55.2ZM84 67.4578C82.2578 67.4578 80.8008 66.8757 79.6289 65.7117C78.457 64.5476 77.8711 63.0906 77.8711 61.3406C77.8711 59.5906 78.457 58.1296 79.6289 56.9578C80.8008 55.7859 82.2578 55.2 84 55.2C85.4766 55.2 86.7656 55.6492 87.8672 56.5476C88.9688 57.446 89.5977 58.571 89.7539 59.9226H86.3203C86.2031 59.4851 85.9258 59.1296 85.4883 58.8562C85.0586 58.575 84.5625 58.4343 84 58.4343C83.1953 58.4343 82.5234 58.7117 81.9844 59.2664C81.4531 59.8132 81.1875 60.5046 81.1875 61.3406C81.1875 62.1531 81.4531 62.8367 81.9844 63.3914C82.5234 63.946 83.1953 64.2234 84 64.2234C84.5625 64.2234 85.0625 64.075 85.5 63.7781C85.9453 63.4812 86.2266 63.1023 86.3438 62.6414H89.7773C89.6914 63.5632 89.3789 64.3953 88.8398 65.1375C88.3008 65.8718 87.6055 66.4421 86.7539 66.8484C85.9102 67.2546 84.9922 67.4578 84 67.4578ZM98.0977 55.2C98.3398 55.2 98.7188 55.2468 99.2344 55.3406V58.4109C98.7578 58.3015 98.3477 58.2468 98.0039 58.2468C97.1367 58.2468 96.4258 58.5164 95.8711 59.0554C95.3242 59.5867 95.0508 60.3718 95.0508 61.4109V67.2234H91.6641V55.4343H95.0508V56.782C95.7773 55.7273 96.793 55.2 98.0977 55.2ZM111.41 60.9304C111.41 61.3445 111.387 61.7468 111.34 62.1375H102.586C102.703 62.9031 103.035 63.5164 103.582 63.9773C104.129 64.4304 104.797 64.657 105.586 64.657C106.234 64.657 106.762 64.532 107.168 64.282C107.582 64.0242 107.836 63.6843 107.93 63.2625H111.246C111.051 64.5281 110.445 65.5437 109.43 66.3093C108.414 67.075 107.164 67.4578 105.68 67.4578C104.539 67.4578 103.492 67.1882 102.539 66.6492C101.594 66.1023 100.848 65.3562 100.301 64.4109C99.7539 63.4578 99.4805 62.4109 99.4805 61.2703C99.4805 59.5593 100.07 58.1218 101.25 56.9578C102.438 55.7859 103.891 55.2 105.609 55.2C106.656 55.2 107.625 55.45 108.516 55.95C109.406 56.45 110.109 57.1414 110.625 58.0242C111.148 58.907 111.41 59.8757 111.41 60.9304ZM102.75 59.9812H107.883C107.836 59.3953 107.578 58.907 107.109 58.5164C106.641 58.1257 106.09 57.9304 105.457 57.9304C104.793 57.9304 104.227 58.1023 103.758 58.446C103.289 58.7898 102.953 59.3015 102.75 59.9812ZM120.527 58.657H117.633V62.3718C117.633 62.9812 117.816 63.4382 118.184 63.7429C118.559 64.0476 119.055 64.2 119.672 64.2C120 64.2 120.285 64.1687 120.527 64.1062V67.2234C120.043 67.3484 119.5 67.4109 118.898 67.4109C117.484 67.4109 116.355 66.9695 115.512 66.0867C114.668 65.2039 114.246 63.9812 114.246 62.4187V58.657H112.055V55.4343H114.246V52.3406H117.633V55.4343H120.527V58.657ZM127.5 55.2C128.352 55.2 129.152 55.3562 129.902 55.6687C130.66 55.9812 131.309 56.4109 131.848 56.9578C132.395 57.4968 132.824 58.1492 133.137 58.9148C133.457 59.6726 133.617 60.4812 133.617 61.3406C133.617 62.489 133.348 63.532 132.809 64.4695C132.277 65.407 131.543 66.1414 130.605 66.6726C129.676 67.196 128.641 67.4578 127.5 67.4578C125.758 67.4578 124.301 66.8757 123.129 65.7117C121.957 64.5476 121.371 63.0906 121.371 61.3406C121.371 59.5906 121.957 58.1296 123.129 56.9578C124.301 55.7859 125.758 55.2 127.5 55.2ZM127.5 58.4343C126.695 58.4343 126.023 58.7117 125.484 59.2664C124.953 59.8132 124.688 60.5046 124.688 61.3406C124.688 62.1531 124.953 62.8367 125.484 63.3914C126.023 63.946 126.695 64.2234 127.5 64.2234C128.289 64.2234 128.953 63.946 129.492 63.3914C130.031 62.8367 130.301 62.1531 130.301 61.3406C130.301 60.5046 130.031 59.8132 129.492 59.2664C128.961 58.7117 128.297 58.4343 127.5 58.4343ZM147.527 55.2C148.527 55.2 149.445 55.4734 150.281 56.0203C151.125 56.5593 151.789 57.3015 152.273 58.2468C152.758 59.1843 153 60.2078 153 61.3171C153 62.4265 152.758 63.4539 152.273 64.3992C151.789 65.3367 151.125 66.0828 150.281 66.6375C149.445 67.1843 148.527 67.4578 147.527 67.4578C145.887 67.4578 144.645 66.8289 143.801 65.571V71.114H140.414V55.4343H143.801V57.0984C144.652 55.8328 145.895 55.2 147.527 55.2ZM146.754 64.2234C147.566 64.2234 148.258 63.9421 148.828 63.3796C149.398 62.8171 149.684 62.1296 149.684 61.3171C149.684 60.5125 149.398 59.8289 148.828 59.2664C148.258 58.696 147.566 58.4109 146.754 58.4109C145.926 58.4109 145.227 58.6921 144.656 59.2546C144.086 59.8171 143.801 60.5046 143.801 61.3171C143.801 62.1375 144.086 62.8289 144.656 63.3914C145.227 63.946 145.926 64.2234 146.754 64.2234ZM161.309 55.2C161.551 55.2 161.93 55.2468 162.445 55.3406V58.4109C161.969 58.3015 161.559 58.2468 161.215 58.2468C160.348 58.2468 159.637 58.5164 159.082 59.0554C158.535 59.5867 158.262 60.3718 158.262 61.4109V67.2234H154.875V55.4343H158.262V56.782C158.988 55.7273 160.004 55.2 161.309 55.2ZM174.621 60.9304C174.621 61.3445 174.598 61.7468 174.551 62.1375H165.797C165.914 62.9031 166.246 63.5164 166.793 63.9773C167.34 64.4304 168.008 64.657 168.797 64.657C169.445 64.657 169.973 64.532 170.379 64.282C170.793 64.0242 171.047 63.6843 171.141 63.2625H174.457C174.262 64.5281 173.656 65.5437 172.641 66.3093C171.625 67.075 170.375 67.4578 168.891 67.4578C167.75 67.4578 166.703 67.1882 165.75 66.6492C164.805 66.1023 164.059 65.3562 163.512 64.4109C162.965 63.4578 162.691 62.4109 162.691 61.2703C162.691 59.5593 163.281 58.1218 164.461 56.9578C165.648 55.7859 167.102 55.2 168.82 55.2C169.867 55.2 170.836 55.45 171.727 55.95C172.617 56.45 173.32 57.1414 173.836 58.0242C174.359 58.907 174.621 59.8757 174.621 60.9304ZM165.961 59.9812H171.094C171.047 59.3953 170.789 58.907 170.32 58.5164C169.852 58.1257 169.301 57.9304 168.668 57.9304C168.004 57.9304 167.438 58.1023 166.969 58.446C166.5 58.7898 166.164 59.3015 165.961 59.9812ZM56.0391 81.2C57.4609 81.2 58.6172 81.6296 59.5078 82.489C60.4062 83.3484 60.8555 84.4851 60.8555 85.8992V93.2234H57.4453V86.696C57.4453 86.0007 57.2617 85.45 56.8945 85.0437C56.5273 84.6375 56.0391 84.4343 55.4297 84.4343C54.8281 84.4343 54.3203 84.6335 53.9062 85.032C53.5 85.4226 53.2969 85.9773 53.2969 86.696V93.2234H49.9102V86.696C49.9102 86.0007 49.7266 85.45 49.3594 85.0437C48.9922 84.6375 48.4961 84.4343 47.8711 84.4343C47.2773 84.4343 46.7812 84.6296 46.3828 85.0203C45.9844 85.4109 45.7852 85.9695 45.7852 86.696V93.2234H42.3984V81.4343H45.7852V82.8523C46.543 81.7507 47.6641 81.2 49.1484 81.2C50.7031 81.2 51.8164 81.7742 52.4883 82.9226C52.8398 82.407 53.3359 81.9929 53.9766 81.6804C54.6172 81.3601 55.3047 81.2 56.0391 81.2ZM74.6602 86.9304C74.6602 87.3445 74.6367 87.7468 74.5898 88.1375H65.8359C65.9531 88.9031 66.2852 89.5164 66.832 89.9773C67.3789 90.4304 68.0469 90.657 68.8359 90.657C69.4844 90.657 70.0117 90.532 70.418 90.282C70.832 90.0242 71.0859 89.6843 71.1797 89.2625H74.4961C74.3008 90.5281 73.6953 91.5437 72.6797 92.3093C71.6641 93.075 70.4141 93.4578 68.9297 93.4578C67.7891 93.4578 66.7422 93.1882 65.7891 92.6492C64.8438 92.1023 64.0977 91.3562 63.5508 90.4109C63.0039 89.4578 62.7305 88.4109 62.7305 87.2703C62.7305 85.5593 63.3203 84.1218 64.5 82.9578C65.6875 81.7859 67.1406 81.2 68.8594 81.2C69.9062 81.2 70.875 81.45 71.7656 81.95C72.6562 82.45 73.3594 83.1414 73.875 84.0242C74.3984 84.907 74.6602 85.8757 74.6602 86.9304ZM66 85.9812H71.1328C71.0859 85.3953 70.8281 84.907 70.3594 84.5164C69.8906 84.1257 69.3398 83.9304 68.707 83.9304C68.043 83.9304 67.4766 84.1023 67.0078 84.446C66.5391 84.7898 66.2031 85.3015 66 85.9812ZM86.0156 81.4343V83.8367L80.3086 89.989H86.0977V93.2234H75.3867V90.821L81.1289 84.657H75.8203V81.4343H86.0156ZM93.5391 93.4578C91.7969 93.4578 90.3398 92.8757 89.168 91.7117C87.9961 90.5476 87.4102 89.0906 87.4102 87.3406C87.4102 85.5906 87.9961 84.1296 89.168 82.9578C90.3398 81.7859 91.7969 81.2 93.5391 81.2C95.0156 81.2 96.3047 81.6492 97.4062 82.5476C98.5078 83.446 99.1367 84.571 99.293 85.9226H95.8594C95.7422 85.4851 95.4648 85.1296 95.0273 84.8562C94.5977 84.575 94.1016 84.4343 93.5391 84.4343C92.7344 84.4343 92.0625 84.7117 91.5234 85.2664C90.9922 85.8132 90.7266 86.5046 90.7266 87.3406C90.7266 88.1531 90.9922 88.8367 91.5234 89.3914C92.0625 89.946 92.7344 90.2234 93.5391 90.2234C94.1016 90.2234 94.6016 90.075 95.0391 89.7781C95.4844 89.4812 95.7656 89.1023 95.8828 88.6414H99.3164C99.2305 89.5632 98.918 90.3953 98.3789 91.1375C97.8398 91.8718 97.1445 92.4421 96.293 92.8484C95.4492 93.2546 94.5312 93.4578 93.5391 93.4578ZM104.449 76.4187V93.2234H101.062V76.4187H104.449ZM115.453 81.4343H118.84V93.2234H115.453V91.5476C114.594 92.821 113.344 93.4578 111.703 93.4578C110.703 93.4578 109.781 93.1843 108.938 92.6375C108.102 92.0828 107.441 91.3367 106.957 90.3992C106.473 89.4539 106.23 88.4265 106.23 87.3171C106.23 86.2078 106.473 85.1843 106.957 84.2468C107.441 83.3015 108.102 82.5593 108.938 82.0203C109.781 81.4734 110.703 81.2 111.703 81.2C113.344 81.2 114.594 81.8406 115.453 83.1218V81.4343ZM112.5 90.2234C113.328 90.2234 114.027 89.946 114.598 89.3914C115.168 88.8289 115.453 88.1375 115.453 87.3171C115.453 86.5046 115.168 85.8171 114.598 85.2546C114.027 84.6921 113.328 84.4109 112.5 84.4109C111.688 84.4109 110.992 84.696 110.414 85.2664C109.836 85.8289 109.547 86.5125 109.547 87.3171C109.547 88.1296 109.832 88.8171 110.402 89.3796C110.98 89.9421 111.68 90.2234 112.5 90.2234ZM129.914 76.4187H133.301V93.2234H129.914V91.5476C129.055 92.821 127.805 93.4578 126.164 93.4578C125.164 93.4578 124.242 93.1843 123.398 92.6375C122.562 92.0828 121.902 91.3367 121.418 90.3992C120.934 89.4539 120.691 88.4265 120.691 87.3171C120.691 86.2078 120.934 85.1843 121.418 84.2468C121.902 83.3015 122.562 82.5593 123.398 82.0203C124.242 81.4734 125.164 81.2 126.164 81.2C127.805 81.2 129.055 81.8406 129.914 83.1218V76.4187ZM126.961 90.2234C127.789 90.2234 128.488 89.946 129.059 89.3914C129.629 88.8289 129.914 88.1375 129.914 87.3171C129.914 86.5046 129.629 85.8171 129.059 85.2546C128.488 84.6921 127.789 84.4109 126.961 84.4109C126.148 84.4109 125.453 84.696 124.875 85.2664C124.297 85.8289 124.008 86.5125 124.008 87.3171C124.008 88.1296 124.293 88.8171 124.863 89.3796C125.441 89.9421 126.141 90.2234 126.961 90.2234ZM141.164 81.2C142.016 81.2 142.816 81.3562 143.566 81.6687C144.324 81.9812 144.973 82.4109 145.512 82.9578C146.059 83.4968 146.488 84.1492 146.801 84.9148C147.121 85.6726 147.281 86.4812 147.281 87.3406C147.281 88.489 147.012 89.532 146.473 90.4695C145.941 91.407 145.207 92.1414 144.27 92.6726C143.34 93.196 142.305 93.4578 141.164 93.4578C139.422 93.4578 137.965 92.8757 136.793 91.7117C135.621 90.5476 135.035 89.0906 135.035 87.3406C135.035 85.5906 135.621 84.1296 136.793 82.9578C137.965 81.7859 139.422 81.2 141.164 81.2ZM141.164 84.4343C140.359 84.4343 139.688 84.7117 139.148 85.2664C138.617 85.8132 138.352 86.5046 138.352 87.3406C138.352 88.1531 138.617 88.8367 139.148 89.3914C139.688 89.946 140.359 90.2234 141.164 90.2234C141.953 90.2234 142.617 89.946 143.156 89.3914C143.695 88.8367 143.965 88.1531 143.965 87.3406C143.965 86.5046 143.695 85.8132 143.156 85.2664C142.625 84.7117 141.961 84.4343 141.164 84.4343ZM161.953 81.4343H165.598L159.047 97.1375H155.426L157.605 92.2625L153.07 81.4343H156.727L159.34 88.325L161.953 81.4343ZM33.9961 107.2C34.9961 107.2 35.9141 107.473 36.75 108.02C37.5938 108.559 38.2578 109.302 38.7422 110.247C39.2266 111.184 39.4688 112.208 39.4688 113.317C39.4688 114.427 39.2266 115.454 38.7422 116.399C38.2578 117.337 37.5938 118.083 36.75 118.637C35.9141 119.184 34.9961 119.458 33.9961 119.458C32.3555 119.458 31.1133 118.829 30.2695 117.571V123.114H26.8828V107.434H30.2695V109.098C31.1211 107.833 32.3633 107.2 33.9961 107.2ZM33.2227 116.223C34.0352 116.223 34.7266 115.942 35.2969 115.38C35.8672 114.817 36.1523 114.13 36.1523 113.317C36.1523 112.512 35.8672 111.829 35.2969 111.266C34.7266 110.696 34.0352 110.411 33.2227 110.411C32.3945 110.411 31.6953 110.692 31.125 111.255C30.5547 111.817 30.2695 112.505 30.2695 113.317C30.2695 114.137 30.5547 114.829 31.125 115.391C31.6953 115.946 32.3945 116.223 33.2227 116.223ZM47.7773 107.2C48.0195 107.2 48.3984 107.247 48.9141 107.341V110.411C48.4375 110.302 48.0273 110.247 47.6836 110.247C46.8164 110.247 46.1055 110.516 45.5508 111.055C45.0039 111.587 44.7305 112.372 44.7305 113.411V119.223H41.3438V107.434H44.7305V108.782C45.457 107.727 46.4727 107.2 47.7773 107.2ZM61.0898 112.93C61.0898 113.344 61.0664 113.747 61.0195 114.137H52.2656C52.3828 114.903 52.7148 115.516 53.2617 115.977C53.8086 116.43 54.4766 116.657 55.2656 116.657C55.9141 116.657 56.4414 116.532 56.8477 116.282C57.2617 116.024 57.5156 115.684 57.6094 115.262H60.9258C60.7305 116.528 60.125 117.544 59.1094 118.309C58.0938 119.075 56.8438 119.458 55.3594 119.458C54.2188 119.458 53.1719 119.188 52.2188 118.649C51.2734 118.102 50.5273 117.356 49.9805 116.411C49.4336 115.458 49.1602 114.411 49.1602 113.27C49.1602 111.559 49.75 110.122 50.9297 108.958C52.1172 107.786 53.5703 107.2 55.2891 107.2C56.3359 107.2 57.3047 107.45 58.1953 107.95C59.0859 108.45 59.7891 109.141 60.3047 110.024C60.8281 110.907 61.0898 111.876 61.0898 112.93ZM52.4297 111.981H57.5625C57.5156 111.395 57.2578 110.907 56.7891 110.516C56.3203 110.126 55.7695 109.93 55.1367 109.93C54.4727 109.93 53.9062 110.102 53.4375 110.446C52.9688 110.79 52.6328 111.302 52.4297 111.981ZM70.0547 105.044C69.4453 105.044 68.9531 105.196 68.5781 105.501C68.2031 105.798 68.0156 106.251 68.0156 106.86V107.434H70.9219V110.657H68.0156V119.223H64.6406V110.657H62.4492V107.434H64.6406V106.79C64.6406 105.243 65.0625 104.028 65.9062 103.145C66.7578 102.262 67.8867 101.821 69.293 101.821C69.8633 101.821 70.4062 101.887 70.9219 102.02V105.137C70.7109 105.075 70.4219 105.044 70.0547 105.044ZM80.6719 107.434H84.0586V119.223H80.6719V117.548C79.8125 118.821 78.5625 119.458 76.9219 119.458C75.9219 119.458 75 119.184 74.1562 118.637C73.3203 118.083 72.6602 117.337 72.1758 116.399C71.6914 115.454 71.4492 114.427 71.4492 113.317C71.4492 112.208 71.6914 111.184 72.1758 110.247C72.6602 109.302 73.3203 108.559 74.1562 108.02C75 107.473 75.9219 107.2 76.9219 107.2C78.5625 107.2 79.8125 107.841 80.6719 109.122V107.434ZM77.7188 116.223C78.5469 116.223 79.2461 115.946 79.8164 115.391C80.3867 114.829 80.6719 114.137 80.6719 113.317C80.6719 112.505 80.3867 111.817 79.8164 111.255C79.2461 110.692 78.5469 110.411 77.7188 110.411C76.9062 110.411 76.2109 110.696 75.6328 111.266C75.0547 111.829 74.7656 112.512 74.7656 113.317C74.7656 114.13 75.0508 114.817 75.6211 115.38C76.1992 115.942 76.8984 116.223 77.7188 116.223ZM93.5273 107.2C94.5273 107.2 95.4453 107.473 96.2812 108.02C97.125 108.559 97.7891 109.302 98.2734 110.247C98.7578 111.184 99 112.208 99 113.317C99 114.427 98.7578 115.454 98.2734 116.399C97.7891 117.337 97.125 118.083 96.2812 118.637C95.4453 119.184 94.5273 119.458 93.5273 119.458C91.8867 119.458 90.6445 118.829 89.8008 117.571V119.223H86.4141V102.419H89.8008V109.098C90.6523 107.833 91.8945 107.2 93.5273 107.2ZM92.7539 116.223C93.5664 116.223 94.2578 115.942 94.8281 115.38C95.3984 114.817 95.6836 114.13 95.6836 113.317C95.6836 112.512 95.3984 111.829 94.8281 111.266C94.2578 110.696 93.5664 110.411 92.7539 110.411C91.9258 110.411 91.2266 110.692 90.6562 111.255C90.0859 111.817 89.8008 112.505 89.8008 113.317C89.8008 114.137 90.0859 114.829 90.6562 115.391C91.2266 115.946 91.9258 116.223 92.7539 116.223ZM107.309 107.2C107.551 107.2 107.93 107.247 108.445 107.341V110.411C107.969 110.302 107.559 110.247 107.215 110.247C106.348 110.247 105.637 110.516 105.082 111.055C104.535 111.587 104.262 112.372 104.262 113.411V119.223H100.875V107.434H104.262V108.782C104.988 107.727 106.004 107.2 107.309 107.2ZM110.297 102.337C110.703 101.93 111.188 101.727 111.75 101.727C112.312 101.727 112.797 101.93 113.203 102.337C113.609 102.735 113.812 103.212 113.812 103.766C113.812 104.329 113.609 104.813 113.203 105.219C112.797 105.626 112.312 105.829 111.75 105.829C111.188 105.829 110.703 105.626 110.297 105.219C109.891 104.813 109.688 104.329 109.688 103.766C109.688 103.212 109.891 102.735 110.297 102.337ZM110.062 107.434H113.449V119.223H110.062V107.434ZM121.477 119.458C119.734 119.458 118.277 118.876 117.105 117.712C115.934 116.548 115.348 115.091 115.348 113.341C115.348 111.591 115.934 110.13 117.105 108.958C118.277 107.786 119.734 107.2 121.477 107.2C122.953 107.2 124.242 107.649 125.344 108.548C126.445 109.446 127.074 110.571 127.23 111.923H123.797C123.68 111.485 123.402 111.13 122.965 110.856C122.535 110.575 122.039 110.434 121.477 110.434C120.672 110.434 120 110.712 119.461 111.266C118.93 111.813 118.664 112.505 118.664 113.341C118.664 114.153 118.93 114.837 119.461 115.391C120 115.946 120.672 116.223 121.477 116.223C122.039 116.223 122.539 116.075 122.977 115.778C123.422 115.481 123.703 115.102 123.82 114.641H127.254C127.168 115.563 126.855 116.395 126.316 117.137C125.777 117.872 125.082 118.442 124.23 118.848C123.387 119.255 122.469 119.458 121.477 119.458ZM137.625 107.434H141.012V119.223H137.625V117.548C136.766 118.821 135.516 119.458 133.875 119.458C132.875 119.458 131.953 119.184 131.109 118.637C130.273 118.083 129.613 117.337 129.129 116.399C128.645 115.454 128.402 114.427 128.402 113.317C128.402 112.208 128.645 111.184 129.129 110.247C129.613 109.302 130.273 108.559 131.109 108.02C131.953 107.473 132.875 107.2 133.875 107.2C135.516 107.2 136.766 107.841 137.625 109.122V107.434ZM134.672 116.223C135.5 116.223 136.199 115.946 136.77 115.391C137.34 114.829 137.625 114.137 137.625 113.317C137.625 112.505 137.34 111.817 136.77 111.255C136.199 110.692 135.5 110.411 134.672 110.411C133.859 110.411 133.164 110.696 132.586 111.266C132.008 111.829 131.719 112.512 131.719 113.317C131.719 114.13 132.004 114.817 132.574 115.38C133.152 115.942 133.852 116.223 134.672 116.223ZM152.086 102.419H155.473V119.223H152.086V117.548C151.227 118.821 149.977 119.458 148.336 119.458C147.336 119.458 146.414 119.184 145.57 118.637C144.734 118.083 144.074 117.337 143.59 116.399C143.105 115.454 142.863 114.427 142.863 113.317C142.863 112.208 143.105 111.184 143.59 110.247C144.074 109.302 144.734 108.559 145.57 108.02C146.414 107.473 147.336 107.2 148.336 107.2C149.977 107.2 151.227 107.841 152.086 109.122V102.419ZM149.133 116.223C149.961 116.223 150.66 115.946 151.23 115.391C151.801 114.829 152.086 114.137 152.086 113.317C152.086 112.505 151.801 111.817 151.23 111.255C150.66 110.692 149.961 110.411 149.133 110.411C148.32 110.411 147.625 110.696 147.047 111.266C146.469 111.829 146.18 112.512 146.18 113.317C146.18 114.13 146.465 114.817 147.035 115.38C147.613 115.942 148.312 116.223 149.133 116.223ZM163.336 107.2C164.188 107.2 164.988 107.356 165.738 107.669C166.496 107.981 167.145 108.411 167.684 108.958C168.23 109.497 168.66 110.149 168.973 110.915C169.293 111.673 169.453 112.481 169.453 113.341C169.453 114.489 169.184 115.532 168.645 116.469C168.113 117.407 167.379 118.141 166.441 118.673C165.512 119.196 164.477 119.458 163.336 119.458C161.594 119.458 160.137 118.876 158.965 117.712C157.793 116.548 157.207 115.091 157.207 113.341C157.207 111.591 157.793 110.13 158.965 108.958C160.137 107.786 161.594 107.2 163.336 107.2ZM163.336 110.434C162.531 110.434 161.859 110.712 161.32 111.266C160.789 111.813 160.523 112.505 160.523 113.341C160.523 114.153 160.789 114.837 161.32 115.391C161.859 115.946 162.531 116.223 163.336 116.223C164.125 116.223 164.789 115.946 165.328 115.391C165.867 114.837 166.137 114.153 166.137 113.341C166.137 112.505 165.867 111.813 165.328 111.266C164.797 110.712 164.133 110.434 163.336 110.434ZM176.039 119.458C174.484 119.458 173.215 119.087 172.23 118.344C171.254 117.594 170.707 116.559 170.59 115.239H173.836C173.867 115.637 174.074 115.958 174.457 116.2C174.84 116.442 175.312 116.563 175.875 116.563C176.375 116.563 176.762 116.485 177.035 116.329C177.316 116.173 177.457 115.954 177.457 115.673C177.457 115.415 177.336 115.204 177.094 115.04C176.852 114.876 176.535 114.755 176.145 114.677C175.754 114.591 175.32 114.509 174.844 114.43C174.375 114.352 173.906 114.243 173.438 114.102C172.969 113.962 172.539 113.782 172.148 113.563C171.758 113.344 171.441 113.024 171.199 112.602C170.957 112.173 170.836 111.661 170.836 111.067C170.836 109.95 171.258 109.028 172.102 108.302C172.953 107.567 174.09 107.2 175.512 107.2C176.855 107.2 178.008 107.544 178.969 108.231C179.93 108.919 180.48 109.887 180.621 111.137H177.211C177.188 110.825 177.016 110.559 176.695 110.341C176.375 110.122 175.957 110.012 175.441 110.012C175.035 110.012 174.707 110.083 174.457 110.223C174.215 110.356 174.094 110.555 174.094 110.821C174.094 111.063 174.215 111.259 174.457 111.407C174.707 111.548 175.027 111.653 175.418 111.723C175.809 111.794 176.238 111.864 176.707 111.934C177.176 112.005 177.645 112.114 178.113 112.262C178.59 112.411 179.023 112.61 179.414 112.86C179.805 113.102 180.121 113.462 180.363 113.938C180.613 114.415 180.738 114.985 180.738 115.649C180.738 116.727 180.285 117.634 179.379 118.368C178.48 119.094 177.367 119.458 176.039 119.458Z" fill="#0451FF"/>
</svg>
