<svg width="207" height="101" viewBox="0 0 207 101" fill="none" xmlns="http://www.w3.org/2000/svg">
<path d="M118.202 32.3645L88.7979 32.3645" stroke="#0451FF" stroke-width="2.20531" stroke-linecap="round"/>
<path d="M110.851 32.3645V8.84127C110.851 6.06902 110.851 4.6829 109.99 3.82168C109.129 2.96045 107.742 2.96045 104.97 2.96045H102.03C99.2575 2.96045 97.8714 2.96045 97.0102 3.82168C96.1489 4.6829 96.1489 6.06902 96.1489 8.84127V32.3645" stroke="#0451FF" stroke-width="2.20531"/>
<path d="M115.629 16.9275C115.629 17.5364 116.123 18.0301 116.732 18.0301C117.341 18.0301 117.834 17.5364 117.834 16.9275H115.629ZM115.425 12.2773L114.812 13.1941L114.812 13.1941L115.425 12.2773ZM116.236 13.0885L115.319 13.7011L115.319 13.7011L116.236 13.0885ZM117.834 22.8083C117.834 22.1993 117.341 21.7056 116.732 21.7056C116.123 21.7056 115.629 22.1993 115.629 22.8083H117.834ZM111.586 12.8844C112.641 12.8844 113.35 12.8857 113.89 12.9407C114.412 12.9937 114.653 13.0876 114.812 13.1941L116.037 11.3605C115.455 10.9715 114.809 10.8175 114.113 10.7467C113.436 10.6778 112.595 10.6791 111.586 10.6791V12.8844ZM117.834 16.9275C117.834 15.918 117.836 15.0779 117.767 14.4002C117.696 13.7041 117.542 13.0581 117.153 12.4759L115.319 13.7011C115.426 13.8606 115.52 14.1017 115.573 14.6234C115.628 15.1636 115.629 15.8721 115.629 16.9275H117.834ZM114.812 13.1941C115.013 13.3282 115.185 13.5005 115.319 13.7011L117.153 12.4759C116.858 12.0345 116.479 11.6554 116.037 11.3605L114.812 13.1941ZM115.629 22.8083V32.3646H117.834V22.8083H115.629Z" fill="#0451FF"/>
<path d="M91.5749 12.2773L92.1875 13.1941L92.1875 13.1941L91.5749 12.2773ZM90.7636 13.0885L91.6804 13.7011L91.6804 13.7011L90.7636 13.0885ZM91.3707 29.4242C91.3707 28.8152 90.877 28.3215 90.2681 28.3215C89.6591 28.3215 89.1654 28.8152 89.1654 29.4242H91.3707ZM89.1654 23.5434C89.1654 24.1524 89.6591 24.646 90.2681 24.646C90.877 24.646 91.3707 24.1524 91.3707 23.5434H89.1654ZM95.4138 10.6791C94.4043 10.6791 93.5642 10.6778 92.8865 10.7467C92.1904 10.8175 91.5445 10.9715 90.9623 11.3605L92.1875 13.1941C92.3469 13.0876 92.588 12.9937 93.1097 12.9407C93.6499 12.8857 94.3584 12.8844 95.4138 12.8844V10.6791ZM91.3707 16.9275C91.3707 15.8721 91.3721 15.1636 91.427 14.6234C91.4801 14.1017 91.5739 13.8606 91.6804 13.7011L89.8468 12.4759C89.4578 13.0581 89.3038 13.7041 89.233 14.4002C89.1641 15.0779 89.1654 15.918 89.1654 16.9275H91.3707ZM90.9623 11.3605C90.5208 11.6554 90.1418 12.0345 89.8468 12.4759L91.6804 13.7011C91.8145 13.5005 91.9868 13.3282 92.1875 13.1941L90.9623 11.3605ZM89.1654 29.4242V32.3646H91.3707V29.4242H89.1654ZM89.1654 16.9275V23.5434H91.3707V16.9275H89.1654Z" fill="#0451FF"/>
<path d="M103.5 32.3645V27.9539" stroke="#0451FF" stroke-width="2.20531" stroke-linecap="round"/>
<path d="M100.56 7.37109H106.44" stroke="#0451FF" stroke-width="2.20531" stroke-linecap="round"/>
<path d="M100.56 20.6028H101.295M106.44 20.6028H104.235" stroke="#0451FF" stroke-width="2.20531" stroke-linecap="round"/>
<path d="M106.44 11.7817H105.705M100.56 11.7817H102.765" stroke="#0451FF" stroke-width="2.20531" stroke-linecap="round"/>
<path d="M100.56 16.1924H106.44" stroke="#0451FF" stroke-width="2.20531" stroke-linecap="round"/>
<path d="M64.6406 66.5393C62.8047 66.5393 61.2852 65.9924 60.082 64.8987C58.8789 63.8049 58.2773 62.4182 58.2773 60.7385H61.7812C61.7812 61.4729 62.0469 62.0667 62.5781 62.5198C63.1094 62.9651 63.7969 63.1877 64.6406 63.1877C65.4219 63.1877 66.0547 63.0198 66.5391 62.6838C67.0312 62.3479 67.2773 61.9065 67.2773 61.3596C67.2773 61.0471 67.1758 60.7737 66.9727 60.5393C66.7695 60.3049 66.4961 60.1135 66.1523 59.9651C65.8164 59.8167 65.4258 59.6838 64.9805 59.5667C64.543 59.4417 64.0781 59.3167 63.5859 59.1917C63.1016 59.0588 62.6133 58.9143 62.1211 58.7581C61.6367 58.6018 61.1719 58.3987 60.7266 58.1487C60.2891 57.8987 59.8984 57.6096 59.5547 57.2815C59.2188 56.9456 58.9492 56.5198 58.7461 56.0042C58.543 55.4807 58.4414 54.8909 58.4414 54.2346C58.4414 52.7971 58.9883 51.6096 60.082 50.6721C61.1836 49.7346 62.5664 49.2659 64.2305 49.2659C65.0352 49.2659 65.7734 49.3674 66.4453 49.5706C67.1172 49.7659 67.6875 50.0393 68.1562 50.3909C68.625 50.7346 69.0195 51.1448 69.3398 51.6213C69.6602 52.0901 69.8945 52.5979 70.043 53.1448C70.1992 53.6838 70.2773 54.2542 70.2773 54.8557H66.6094C66.5938 54.1995 66.3594 53.6643 65.9062 53.2502C65.4609 52.8362 64.8633 52.6292 64.1133 52.6292C63.4414 52.6292 62.9062 52.7698 62.5078 53.051C62.1172 53.3323 61.9219 53.719 61.9219 54.2112C61.9219 54.5081 62.0234 54.7659 62.2266 54.9846C62.4297 55.1956 62.7031 55.3713 63.0469 55.512C63.3906 55.6448 63.7812 55.7698 64.2188 55.887C64.6641 55.9963 65.1328 56.1135 65.625 56.2385C66.1172 56.3635 66.6094 56.5042 67.1016 56.6604C67.5938 56.8167 68.0586 57.0237 68.4961 57.2815C68.9414 57.5393 69.3359 57.844 69.6797 58.1956C70.0234 58.5393 70.2969 58.9807 70.5 59.5198C70.7031 60.0588 70.8047 60.6721 70.8047 61.3596C70.8047 62.8518 70.2188 64.0901 69.0469 65.0745C67.8828 66.051 66.4141 66.5393 64.6406 66.5393ZM78.4336 54.2815C79.2852 54.2815 80.0859 54.4377 80.8359 54.7502C81.5938 55.0627 82.2422 55.4924 82.7812 56.0393C83.3281 56.5784 83.7578 57.2307 84.0703 57.9963C84.3906 58.7542 84.5508 59.5627 84.5508 60.4221C84.5508 61.5706 84.2812 62.6135 83.7422 63.551C83.2109 64.4885 82.4766 65.2229 81.5391 65.7542C80.6094 66.2776 79.5742 66.5393 78.4336 66.5393C76.6914 66.5393 75.2344 65.9573 74.0625 64.7932C72.8906 63.6292 72.3047 62.1721 72.3047 60.4221C72.3047 58.6721 72.8906 57.2112 74.0625 56.0393C75.2344 54.8674 76.6914 54.2815 78.4336 54.2815ZM78.4336 57.5159C77.6289 57.5159 76.957 57.7932 76.418 58.3479C75.8867 58.8948 75.6211 59.5862 75.6211 60.4221C75.6211 61.2346 75.8867 61.9182 76.418 62.4729C76.957 63.0276 77.6289 63.3049 78.4336 63.3049C79.2227 63.3049 79.8867 63.0276 80.4258 62.4729C80.9648 61.9182 81.2344 61.2346 81.2344 60.4221C81.2344 59.5862 80.9648 58.8948 80.4258 58.3479C79.8945 57.7932 79.2305 57.5159 78.4336 57.5159ZM93.5625 54.2815C94.5625 54.2815 95.4805 54.5549 96.3164 55.1018C97.1602 55.6409 97.8242 56.3831 98.3086 57.3284C98.793 58.2659 99.0352 59.2893 99.0352 60.3987C99.0352 61.5081 98.793 62.5354 98.3086 63.4807C97.8242 64.4182 97.1602 65.1643 96.3164 65.719C95.4805 66.2659 94.5625 66.5393 93.5625 66.5393C91.9219 66.5393 90.6797 65.9104 89.8359 64.6526V70.1956H86.4492V54.5159H89.8359V56.1799C90.6875 54.9143 91.9297 54.2815 93.5625 54.2815ZM92.7891 63.3049C93.6016 63.3049 94.293 63.0237 94.8633 62.4612C95.4336 61.8987 95.7188 61.2112 95.7188 60.3987C95.7188 59.594 95.4336 58.9104 94.8633 58.3479C94.293 57.7776 93.6016 57.4924 92.7891 57.4924C91.9609 57.4924 91.2617 57.7737 90.6914 58.3362C90.1211 58.8987 89.8359 59.5862 89.8359 60.3987C89.8359 61.219 90.1211 61.9104 90.6914 62.4729C91.2617 63.0276 91.9609 63.3049 92.7891 63.3049ZM106.395 54.2815C107.246 54.2815 108.047 54.4377 108.797 54.7502C109.555 55.0627 110.203 55.4924 110.742 56.0393C111.289 56.5784 111.719 57.2307 112.031 57.9963C112.352 58.7542 112.512 59.5627 112.512 60.4221C112.512 61.5706 112.242 62.6135 111.703 63.551C111.172 64.4885 110.438 65.2229 109.5 65.7542C108.57 66.2776 107.535 66.5393 106.395 66.5393C104.652 66.5393 103.195 65.9573 102.023 64.7932C100.852 63.6292 100.266 62.1721 100.266 60.4221C100.266 58.6721 100.852 57.2112 102.023 56.0393C103.195 54.8674 104.652 54.2815 106.395 54.2815ZM106.395 57.5159C105.59 57.5159 104.918 57.7932 104.379 58.3479C103.848 58.8948 103.582 59.5862 103.582 60.4221C103.582 61.2346 103.848 61.9182 104.379 62.4729C104.918 63.0276 105.59 63.3049 106.395 63.3049C107.184 63.3049 107.848 63.0276 108.387 62.4729C108.926 61.9182 109.195 61.2346 109.195 60.4221C109.195 59.5862 108.926 58.8948 108.387 58.3479C107.855 57.7932 107.191 57.5159 106.395 57.5159ZM120.844 54.2815C121.086 54.2815 121.465 54.3284 121.98 54.4221V57.4924C121.504 57.3831 121.094 57.3284 120.75 57.3284C119.883 57.3284 119.172 57.5979 118.617 58.137C118.07 58.6682 117.797 59.4534 117.797 60.4924V66.3049H114.41V54.5159H117.797V55.8635C118.523 54.8088 119.539 54.2815 120.844 54.2815ZM131.297 57.7385H128.402V61.4534C128.402 62.0627 128.586 62.5198 128.953 62.8245C129.328 63.1292 129.824 63.2815 130.441 63.2815C130.77 63.2815 131.055 63.2502 131.297 63.1877V66.3049C130.812 66.4299 130.27 66.4924 129.668 66.4924C128.254 66.4924 127.125 66.051 126.281 65.1682C125.438 64.2854 125.016 63.0627 125.016 61.5002V57.7385H122.824V54.5159H125.016V51.4221H128.402V54.5159H131.297V57.7385ZM144.07 60.012C144.07 60.426 144.047 60.8284 144 61.219H135.246C135.363 61.9846 135.695 62.5979 136.242 63.0588C136.789 63.512 137.457 63.7385 138.246 63.7385C138.895 63.7385 139.422 63.6135 139.828 63.3635C140.242 63.1057 140.496 62.7659 140.59 62.344H143.906C143.711 63.6096 143.105 64.6252 142.09 65.3909C141.074 66.1565 139.824 66.5393 138.34 66.5393C137.199 66.5393 136.152 66.2698 135.199 65.7307C134.254 65.1838 133.508 64.4377 132.961 63.4924C132.414 62.5393 132.141 61.4924 132.141 60.3518C132.141 58.6409 132.73 57.2034 133.91 56.0393C135.098 54.8674 136.551 54.2815 138.27 54.2815C139.316 54.2815 140.285 54.5315 141.176 55.0315C142.066 55.5315 142.77 56.2229 143.285 57.1057C143.809 57.9885 144.07 58.9573 144.07 60.012ZM135.41 59.0627H140.543C140.496 58.4768 140.238 57.9885 139.77 57.5979C139.301 57.2073 138.75 57.012 138.117 57.012C137.453 57.012 136.887 57.1838 136.418 57.5276C135.949 57.8713 135.613 58.3831 135.41 59.0627ZM75.1758 80.5002V83.9104H70.2539V97.3049H66.7031V83.9104H61.8047V80.5002H75.1758ZM83.9883 80.4768L81.0586 84.2268H77.9414L80.0039 80.4768H83.9883ZM85.5938 91.012C85.5938 91.426 85.5703 91.8284 85.5234 92.219H76.7695C76.8867 92.9846 77.2188 93.5979 77.7656 94.0588C78.3125 94.512 78.9805 94.7385 79.7695 94.7385C80.418 94.7385 80.9453 94.6135 81.3516 94.3635C81.7656 94.1057 82.0195 93.7659 82.1133 93.344H85.4297C85.2344 94.6096 84.6289 95.6252 83.6133 96.3909C82.5977 97.1565 81.3477 97.5393 79.8633 97.5393C78.7227 97.5393 77.6758 97.2698 76.7227 96.7307C75.7773 96.1838 75.0312 95.4377 74.4844 94.4924C73.9375 93.5393 73.6641 92.4924 73.6641 91.3518C73.6641 89.6409 74.2539 88.2034 75.4336 87.0393C76.6211 85.8674 78.0742 85.2815 79.793 85.2815C80.8398 85.2815 81.8086 85.5315 82.6992 86.0315C83.5898 86.5315 84.293 87.2229 84.8086 88.1057C85.332 88.9885 85.5938 89.9573 85.5938 91.012ZM76.9336 90.0627H82.0664C82.0195 89.4768 81.7617 88.9885 81.293 88.5979C80.8242 88.2073 80.2734 88.012 79.6406 88.012C78.9766 88.012 78.4102 88.1838 77.9414 88.5276C77.4727 88.8713 77.1367 89.3831 76.9336 90.0627ZM92.9648 97.5393C91.2227 97.5393 89.7656 96.9573 88.5938 95.7932C87.4219 94.6292 86.8359 93.1721 86.8359 91.4221C86.8359 89.6721 87.4219 88.2112 88.5938 87.0393C89.7656 85.8674 91.2227 85.2815 92.9648 85.2815C94.4414 85.2815 95.7305 85.7307 96.832 86.6292C97.9336 87.5276 98.5625 88.6526 98.7188 90.0042H95.2852C95.168 89.5667 94.8906 89.2112 94.4531 88.9377C94.0234 88.6565 93.5273 88.5159 92.9648 88.5159C92.1602 88.5159 91.4883 88.7932 90.9492 89.3479C90.418 89.8948 90.1523 90.5862 90.1523 91.4221C90.1523 92.2346 90.418 92.9182 90.9492 93.4729C91.4883 94.0276 92.1602 94.3049 92.9648 94.3049C93.5273 94.3049 94.0273 94.1565 94.4648 93.8596C94.9102 93.5627 95.1914 93.1838 95.3086 92.7229H98.7422C98.6562 93.6448 98.3438 94.4768 97.8047 95.219C97.2656 95.9534 96.5703 96.5237 95.7188 96.9299C94.875 97.3362 93.957 97.5393 92.9648 97.5393ZM107.215 85.2815C108.723 85.2815 109.906 85.7581 110.766 86.7112C111.625 87.6565 112.055 88.9651 112.055 90.637V97.3049H108.668V91.0706C108.668 90.3049 108.453 89.6877 108.023 89.219C107.602 88.7502 107.043 88.5159 106.348 88.5159C105.645 88.5159 105.078 88.7502 104.648 89.219C104.227 89.6799 104.016 90.2971 104.016 91.0706V97.3049H100.629V85.5159H104.016V87.0627C104.797 85.8752 105.863 85.2815 107.215 85.2815ZM114.668 80.4182C115.074 80.012 115.559 79.8088 116.121 79.8088C116.684 79.8088 117.168 80.012 117.574 80.4182C117.98 80.8167 118.184 81.2932 118.184 81.8479C118.184 82.4104 117.98 82.8948 117.574 83.301C117.168 83.7073 116.684 83.9104 116.121 83.9104C115.559 83.9104 115.074 83.7073 114.668 83.301C114.262 82.8948 114.059 82.4104 114.059 81.8479C114.059 81.2932 114.262 80.8167 114.668 80.4182ZM114.434 85.5159H117.82V97.3049H114.434V85.5159ZM125.848 97.5393C124.105 97.5393 122.648 96.9573 121.477 95.7932C120.305 94.6292 119.719 93.1721 119.719 91.4221C119.719 89.6721 120.305 88.2112 121.477 87.0393C122.648 85.8674 124.105 85.2815 125.848 85.2815C127.324 85.2815 128.613 85.7307 129.715 86.6292C130.816 87.5276 131.445 88.6526 131.602 90.0042H128.168C128.051 89.5667 127.773 89.2112 127.336 88.9377C126.906 88.6565 126.41 88.5159 125.848 88.5159C125.043 88.5159 124.371 88.7932 123.832 89.3479C123.301 89.8948 123.035 90.5862 123.035 91.4221C123.035 92.2346 123.301 92.9182 123.832 93.4729C124.371 94.0276 125.043 94.3049 125.848 94.3049C126.41 94.3049 126.91 94.1565 127.348 93.8596C127.793 93.5627 128.074 93.1838 128.191 92.7229H131.625C131.539 93.6448 131.227 94.4768 130.688 95.219C130.148 95.9534 129.453 96.5237 128.602 96.9299C127.758 97.3362 126.84 97.5393 125.848 97.5393ZM138.902 85.2815C139.754 85.2815 140.555 85.4377 141.305 85.7502C142.062 86.0627 142.711 86.4924 143.25 87.0393C143.797 87.5784 144.227 88.2307 144.539 88.9963C144.859 89.7542 145.02 90.5627 145.02 91.4221C145.02 92.5706 144.75 93.6135 144.211 94.551C143.68 95.4885 142.945 96.2229 142.008 96.7542C141.078 97.2776 140.043 97.5393 138.902 97.5393C137.16 97.5393 135.703 96.9573 134.531 95.7932C133.359 94.6292 132.773 93.1721 132.773 91.4221C132.773 89.6721 133.359 88.2112 134.531 87.0393C135.703 85.8674 137.16 85.2815 138.902 85.2815ZM138.902 88.5159C138.098 88.5159 137.426 88.7932 136.887 89.3479C136.355 89.8948 136.09 90.5862 136.09 91.4221C136.09 92.2346 136.355 92.9182 136.887 93.4729C137.426 94.0276 138.098 94.3049 138.902 94.3049C139.691 94.3049 140.355 94.0276 140.895 93.4729C141.434 92.9182 141.703 92.2346 141.703 91.4221C141.703 90.5862 141.434 89.8948 140.895 89.3479C140.363 88.7932 139.699 88.5159 138.902 88.5159Z" fill="#0451FF"/>
</svg>
