<svg width="207" height="122" viewBox="0 0 207 122" fill="none" xmlns="http://www.w3.org/2000/svg">
<path d="M118.202 32.3506L88.7979 32.3506" stroke="#EDF6FF" stroke-width="2.20531" stroke-linecap="round"/>
<path d="M110.851 32.3506V8.82735C110.851 6.05511 110.851 4.66899 109.99 3.80776C109.129 2.94653 107.742 2.94653 104.97 2.94653H102.03C99.2575 2.94653 97.8714 2.94653 97.0102 3.80776C96.1489 4.66899 96.1489 6.05511 96.1489 8.82735V32.3506" stroke="#EDF6FF" stroke-width="2.20531"/>
<path d="M115.629 16.9135C115.629 17.5225 116.123 18.0162 116.732 18.0162C117.341 18.0162 117.834 17.5225 117.834 16.9135H115.629ZM115.425 12.2634L114.812 13.1802L114.812 13.1802L115.425 12.2634ZM116.236 13.0746L115.319 13.6872L115.319 13.6872L116.236 13.0746ZM117.834 22.7944C117.834 22.1854 117.341 21.6917 116.732 21.6917C116.123 21.6917 115.629 22.1854 115.629 22.7944H117.834ZM111.586 12.8705C112.641 12.8705 113.35 12.8718 113.89 12.9268C114.412 12.9798 114.653 13.0737 114.812 13.1802L116.037 11.3465C115.455 10.9575 114.809 10.8036 114.113 10.7328C113.436 10.6638 112.595 10.6652 111.586 10.6652V12.8705ZM117.834 16.9135C117.834 15.9041 117.836 15.064 117.767 14.3863C117.696 13.6902 117.542 13.0442 117.153 12.462L115.319 13.6872C115.426 13.8467 115.52 14.0877 115.573 14.6095C115.628 15.1496 115.629 15.8582 115.629 16.9135H117.834ZM114.812 13.1802C115.013 13.3143 115.185 13.4866 115.319 13.6872L117.153 12.462C116.858 12.0206 116.479 11.6415 116.037 11.3465L114.812 13.1802ZM115.629 22.7944V32.3507H117.834V22.7944H115.629Z" fill="#EDF6FF"/>
<path d="M91.5749 12.2634L92.1875 13.1802L92.1875 13.1802L91.5749 12.2634ZM90.7636 13.0746L91.6804 13.6872L91.6804 13.6872L90.7636 13.0746ZM91.3707 29.4103C91.3707 28.8013 90.877 28.3076 90.2681 28.3076C89.6591 28.3076 89.1654 28.8013 89.1654 29.4103H91.3707ZM89.1654 23.5295C89.1654 24.1384 89.6591 24.6321 90.2681 24.6321C90.877 24.6321 91.3707 24.1384 91.3707 23.5295H89.1654ZM95.4138 10.6652C94.4043 10.6652 93.5642 10.6638 92.8865 10.7328C92.1904 10.8036 91.5445 10.9575 90.9623 11.3465L92.1875 13.1802C92.3469 13.0737 92.588 12.9798 93.1097 12.9268C93.6499 12.8718 94.3584 12.8705 95.4138 12.8705V10.6652ZM91.3707 16.9135C91.3707 15.8582 91.3721 15.1496 91.427 14.6095C91.4801 14.0877 91.5739 13.8467 91.6804 13.6872L89.8468 12.462C89.4578 13.0442 89.3038 13.6902 89.233 14.3863C89.1641 15.064 89.1654 15.9041 89.1654 16.9135H91.3707ZM90.9623 11.3465C90.5208 11.6415 90.1418 12.0206 89.8468 12.462L91.6804 13.6872C91.8145 13.4866 91.9868 13.3143 92.1875 13.1802L90.9623 11.3465ZM89.1654 29.4103V32.3507H91.3707V29.4103H89.1654ZM89.1654 16.9135V23.5295H91.3707V16.9135H89.1654Z" fill="#EDF6FF"/>
<path d="M103.5 32.3506V27.9399" stroke="#EDF6FF" stroke-width="2.20531" stroke-linecap="round"/>
<path d="M100.56 7.35718H106.44" stroke="#EDF6FF" stroke-width="2.20531" stroke-linecap="round"/>
<path d="M100.56 20.5889H101.295M106.44 20.5889H104.235" stroke="#EDF6FF" stroke-width="2.20531" stroke-linecap="round"/>
<path d="M106.44 11.7678H105.705M100.56 11.7678H102.765" stroke="#EDF6FF" stroke-width="2.20531" stroke-linecap="round"/>
<path d="M100.56 16.1785H106.44" stroke="#EDF6FF" stroke-width="2.20531" stroke-linecap="round"/>
<path d="M48.375 49.4863V52.8965H43.4531V66.291H39.9023V52.8965H35.0039V49.4863H48.375ZM54.9961 54.2676C55.2383 54.2676 55.6172 54.3145 56.1328 54.4082V57.4785C55.6562 57.3691 55.2461 57.3145 54.9023 57.3145C54.0352 57.3145 53.3242 57.584 52.7695 58.123C52.2227 58.6543 51.9492 59.4395 51.9492 60.4785V66.291H48.5625V54.502H51.9492V55.8496C52.6758 54.7949 53.6914 54.2676 54.9961 54.2676ZM65.6016 54.502H68.9883V66.291H65.6016V64.6152C64.7422 65.8887 63.4922 66.5254 61.8516 66.5254C60.8516 66.5254 59.9297 66.252 59.0859 65.7051C58.25 65.1504 57.5898 64.4043 57.1055 63.4668C56.6211 62.5215 56.3789 61.4941 56.3789 60.3848C56.3789 59.2754 56.6211 58.252 57.1055 57.3145C57.5898 56.3691 58.25 55.627 59.0859 55.0879C59.9297 54.541 60.8516 54.2676 61.8516 54.2676C63.4922 54.2676 64.7422 54.9082 65.6016 56.1895V54.502ZM62.6484 63.291C63.4766 63.291 64.1758 63.0137 64.7461 62.459C65.3164 61.8965 65.6016 61.2051 65.6016 60.3848C65.6016 59.5723 65.3164 58.8848 64.7461 58.3223C64.1758 57.7598 63.4766 57.4785 62.6484 57.4785C61.8359 57.4785 61.1406 57.7637 60.5625 58.334C59.9844 58.8965 59.6953 59.5801 59.6953 60.3848C59.6953 61.1973 59.9805 61.8848 60.5508 62.4473C61.1289 63.0098 61.8281 63.291 62.6484 63.291ZM77.9297 54.2676C79.4375 54.2676 80.6211 54.7441 81.4805 55.6973C82.3398 56.6426 82.7695 57.9512 82.7695 59.623V66.291H79.3828V60.0566C79.3828 59.291 79.168 58.6738 78.7383 58.2051C78.3164 57.7363 77.7578 57.502 77.0625 57.502C76.3594 57.502 75.793 57.7363 75.3633 58.2051C74.9414 58.666 74.7305 59.2832 74.7305 60.0566V66.291H71.3438V54.502H74.7305V56.0488C75.5117 54.8613 76.5781 54.2676 77.9297 54.2676ZM89.9297 66.5254C88.375 66.5254 87.1055 66.1543 86.1211 65.4121C85.1445 64.6621 84.5977 63.627 84.4805 62.3066H87.7266C87.7578 62.7051 87.9648 63.0254 88.3477 63.2676C88.7305 63.5098 89.2031 63.6309 89.7656 63.6309C90.2656 63.6309 90.6523 63.5527 90.9258 63.3965C91.207 63.2402 91.3477 63.0215 91.3477 62.7402C91.3477 62.4824 91.2266 62.2715 90.9844 62.1074C90.7422 61.9434 90.4258 61.8223 90.0352 61.7441C89.6445 61.6582 89.2109 61.5762 88.7344 61.498C88.2656 61.4199 87.7969 61.3105 87.3281 61.1699C86.8594 61.0293 86.4297 60.8496 86.0391 60.6309C85.6484 60.4121 85.332 60.0918 85.0898 59.6699C84.8477 59.2402 84.7266 58.7285 84.7266 58.1348C84.7266 57.0176 85.1484 56.0957 85.9922 55.3691C86.8438 54.6348 87.9805 54.2676 89.4023 54.2676C90.7461 54.2676 91.8984 54.6113 92.8594 55.2988C93.8203 55.9863 94.3711 56.9551 94.5117 58.2051H91.1016C91.0781 57.8926 90.9062 57.627 90.5859 57.4082C90.2656 57.1895 89.8477 57.0801 89.332 57.0801C88.9258 57.0801 88.5977 57.1504 88.3477 57.291C88.1055 57.4238 87.9844 57.623 87.9844 57.8887C87.9844 58.1309 88.1055 58.3262 88.3477 58.4746C88.5977 58.6152 88.918 58.7207 89.3086 58.791C89.6992 58.8613 90.1289 58.9316 90.5977 59.002C91.0664 59.0723 91.5352 59.1816 92.0039 59.3301C92.4805 59.4785 92.9141 59.6777 93.3047 59.9277C93.6953 60.1699 94.0117 60.5293 94.2539 61.0059C94.5039 61.4824 94.6289 62.0527 94.6289 62.7168C94.6289 63.7949 94.1758 64.7012 93.2695 65.4355C92.3711 66.1621 91.2578 66.5254 89.9297 66.5254ZM103.512 54.2676C104.512 54.2676 105.43 54.541 106.266 55.0879C107.109 55.627 107.773 56.3691 108.258 57.3145C108.742 58.252 108.984 59.2754 108.984 60.3848C108.984 61.4941 108.742 62.5215 108.258 63.4668C107.773 64.4043 107.109 65.1504 106.266 65.7051C105.43 66.252 104.512 66.5254 103.512 66.5254C101.871 66.5254 100.629 65.8965 99.7852 64.6387V70.1816H96.3984V54.502H99.7852V56.166C100.637 54.9004 101.879 54.2676 103.512 54.2676ZM102.738 63.291C103.551 63.291 104.242 63.0098 104.812 62.4473C105.383 61.8848 105.668 61.1973 105.668 60.3848C105.668 59.5801 105.383 58.8965 104.812 58.334C104.242 57.7637 103.551 57.4785 102.738 57.4785C101.91 57.4785 101.211 57.7598 100.641 58.3223C100.07 58.8848 99.7852 59.5723 99.7852 60.3848C99.7852 61.2051 100.07 61.8965 100.641 62.459C101.211 63.0137 101.91 63.291 102.738 63.291ZM116.344 54.2676C117.195 54.2676 117.996 54.4238 118.746 54.7363C119.504 55.0488 120.152 55.4785 120.691 56.0254C121.238 56.5645 121.668 57.2168 121.98 57.9824C122.301 58.7402 122.461 59.5488 122.461 60.4082C122.461 61.5566 122.191 62.5996 121.652 63.5371C121.121 64.4746 120.387 65.209 119.449 65.7402C118.52 66.2637 117.484 66.5254 116.344 66.5254C114.602 66.5254 113.145 65.9434 111.973 64.7793C110.801 63.6152 110.215 62.1582 110.215 60.4082C110.215 58.6582 110.801 57.1973 111.973 56.0254C113.145 54.8535 114.602 54.2676 116.344 54.2676ZM116.344 57.502C115.539 57.502 114.867 57.7793 114.328 58.334C113.797 58.8809 113.531 59.5723 113.531 60.4082C113.531 61.2207 113.797 61.9043 114.328 62.459C114.867 63.0137 115.539 63.291 116.344 63.291C117.133 63.291 117.797 63.0137 118.336 62.459C118.875 61.9043 119.145 61.2207 119.145 60.4082C119.145 59.5723 118.875 58.8809 118.336 58.334C117.805 57.7793 117.141 57.502 116.344 57.502ZM130.793 54.2676C131.035 54.2676 131.414 54.3145 131.93 54.4082V57.4785C131.453 57.3691 131.043 57.3145 130.699 57.3145C129.832 57.3145 129.121 57.584 128.566 58.123C128.02 58.6543 127.746 59.4395 127.746 60.4785V66.291H124.359V54.502H127.746V55.8496C128.473 54.7949 129.488 54.2676 130.793 54.2676ZM141.246 57.7246H138.352V61.4395C138.352 62.0488 138.535 62.5059 138.902 62.8105C139.277 63.1152 139.773 63.2676 140.391 63.2676C140.719 63.2676 141.004 63.2363 141.246 63.1738V66.291C140.762 66.416 140.219 66.4785 139.617 66.4785C138.203 66.4785 137.074 66.0371 136.23 65.1543C135.387 64.2715 134.965 63.0488 134.965 61.4863V57.7246H132.773V54.502H134.965V51.4082H138.352V54.502H141.246V57.7246ZM154.02 59.998C154.02 60.4121 153.996 60.8145 153.949 61.2051H145.195C145.312 61.9707 145.645 62.584 146.191 63.0449C146.738 63.498 147.406 63.7246 148.195 63.7246C148.844 63.7246 149.371 63.5996 149.777 63.3496C150.191 63.0918 150.445 62.752 150.539 62.3301H153.855C153.66 63.5957 153.055 64.6113 152.039 65.377C151.023 66.1426 149.773 66.5254 148.289 66.5254C147.148 66.5254 146.102 66.2559 145.148 65.7168C144.203 65.1699 143.457 64.4238 142.91 63.4785C142.363 62.5254 142.09 61.4785 142.09 60.3379C142.09 58.627 142.68 57.1895 143.859 56.0254C145.047 54.8535 146.5 54.2676 148.219 54.2676C149.266 54.2676 150.234 54.5176 151.125 55.0176C152.016 55.5176 152.719 56.209 153.234 57.0918C153.758 57.9746 154.02 58.9434 154.02 59.998ZM145.359 59.0488H150.492C150.445 58.4629 150.188 57.9746 149.719 57.584C149.25 57.1934 148.699 56.998 148.066 56.998C147.402 56.998 146.836 57.1699 146.367 57.5137C145.898 57.8574 145.562 58.3691 145.359 59.0488ZM168.68 54.502H172.324L165.773 70.2051H162.152L164.332 65.3301L159.797 54.502H163.453L166.066 61.3926L168.68 54.502ZM50.5664 80.2676C51.5664 80.2676 52.4844 80.541 53.3203 81.0879C54.1641 81.627 54.8281 82.3691 55.3125 83.3145C55.7969 84.252 56.0391 85.2754 56.0391 86.3848C56.0391 87.4941 55.7969 88.5215 55.3125 89.4668C54.8281 90.4043 54.1641 91.1504 53.3203 91.7051C52.4844 92.252 51.5664 92.5254 50.5664 92.5254C48.9258 92.5254 47.6836 91.8965 46.8398 90.6387V92.291H43.4531V75.4863H46.8398V82.166C47.6914 80.9004 48.9336 80.2676 50.5664 80.2676ZM49.793 89.291C50.6055 89.291 51.2969 89.0098 51.8672 88.4473C52.4375 87.8848 52.7227 87.1973 52.7227 86.3848C52.7227 85.5801 52.4375 84.8965 51.8672 84.334C51.2969 83.7637 50.6055 83.4785 49.793 83.4785C48.9648 83.4785 48.2656 83.7598 47.6953 84.3223C47.125 84.8848 46.8398 85.5723 46.8398 86.3848C46.8398 87.2051 47.125 87.8965 47.6953 88.459C48.2656 89.0137 48.9648 89.291 49.793 89.291ZM63.3984 80.2676C64.25 80.2676 65.0508 80.4238 65.8008 80.7363C66.5586 81.0488 67.207 81.4785 67.7461 82.0254C68.293 82.5645 68.7227 83.2168 69.0352 83.9824C69.3555 84.7402 69.5156 85.5488 69.5156 86.4082C69.5156 87.5566 69.2461 88.5996 68.707 89.5371C68.1758 90.4746 67.4414 91.209 66.5039 91.7402C65.5742 92.2637 64.5391 92.5254 63.3984 92.5254C61.6562 92.5254 60.1992 91.9434 59.0273 90.7793C57.8555 89.6152 57.2695 88.1582 57.2695 86.4082C57.2695 84.6582 57.8555 83.1973 59.0273 82.0254C60.1992 80.8535 61.6562 80.2676 63.3984 80.2676ZM63.3984 83.502C62.5938 83.502 61.9219 83.7793 61.3828 84.334C60.8516 84.8809 60.5859 85.5723 60.5859 86.4082C60.5859 87.2207 60.8516 87.9043 61.3828 88.459C61.9219 89.0137 62.5938 89.291 63.3984 89.291C64.1875 89.291 64.8516 89.0137 65.3906 88.459C65.9297 87.9043 66.1992 87.2207 66.1992 86.4082C66.1992 85.5723 65.9297 84.8809 65.3906 84.334C64.8594 83.7793 64.1953 83.502 63.3984 83.502ZM85.0547 80.2676C86.4766 80.2676 87.6328 80.6973 88.5234 81.5566C89.4219 82.416 89.8711 83.5527 89.8711 84.9668V92.291H86.4609V85.7637C86.4609 85.0684 86.2773 84.5176 85.9102 84.1113C85.543 83.7051 85.0547 83.502 84.4453 83.502C83.8438 83.502 83.3359 83.7012 82.9219 84.0996C82.5156 84.4902 82.3125 85.0449 82.3125 85.7637V92.291H78.9258V85.7637C78.9258 85.0684 78.7422 84.5176 78.375 84.1113C78.0078 83.7051 77.5117 83.502 76.8867 83.502C76.293 83.502 75.7969 83.6973 75.3984 84.0879C75 84.4785 74.8008 85.0371 74.8008 85.7637V92.291H71.4141V80.502H74.8008V81.9199C75.5586 80.8184 76.6797 80.2676 78.1641 80.2676C79.7188 80.2676 80.832 80.8418 81.5039 81.9902C81.8555 81.4746 82.3516 81.0605 82.9922 80.748C83.6328 80.4277 84.3203 80.2676 85.0547 80.2676ZM99.3633 80.2676C100.363 80.2676 101.281 80.541 102.117 81.0879C102.961 81.627 103.625 82.3691 104.109 83.3145C104.594 84.252 104.836 85.2754 104.836 86.3848C104.836 87.4941 104.594 88.5215 104.109 89.4668C103.625 90.4043 102.961 91.1504 102.117 91.7051C101.281 92.252 100.363 92.5254 99.3633 92.5254C97.7227 92.5254 96.4805 91.8965 95.6367 90.6387V92.291H92.25V75.4863H95.6367V82.166C96.4883 80.9004 97.7305 80.2676 99.3633 80.2676ZM98.5898 89.291C99.4023 89.291 100.094 89.0098 100.664 88.4473C101.234 87.8848 101.52 87.1973 101.52 86.3848C101.52 85.5801 101.234 84.8965 100.664 84.334C100.094 83.7637 99.4023 83.4785 98.5898 83.4785C97.7617 83.4785 97.0625 83.7598 96.4922 84.3223C95.9219 84.8848 95.6367 85.5723 95.6367 86.3848C95.6367 87.2051 95.9219 87.8965 96.4922 88.459C97.0625 89.0137 97.7617 89.291 98.5898 89.291ZM117.996 85.998C117.996 86.4121 117.973 86.8145 117.926 87.2051H109.172C109.289 87.9707 109.621 88.584 110.168 89.0449C110.715 89.498 111.383 89.7246 112.172 89.7246C112.82 89.7246 113.348 89.5996 113.754 89.3496C114.168 89.0918 114.422 88.752 114.516 88.3301H117.832C117.637 89.5957 117.031 90.6113 116.016 91.377C115 92.1426 113.75 92.5254 112.266 92.5254C111.125 92.5254 110.078 92.2559 109.125 91.7168C108.18 91.1699 107.434 90.4238 106.887 89.4785C106.34 88.5254 106.066 87.4785 106.066 86.3379C106.066 84.627 106.656 83.1895 107.836 82.0254C109.023 80.8535 110.477 80.2676 112.195 80.2676C113.242 80.2676 114.211 80.5176 115.102 81.0176C115.992 81.5176 116.695 82.209 117.211 83.0918C117.734 83.9746 117.996 84.9434 117.996 85.998ZM109.336 85.0488H114.469C114.422 84.4629 114.164 83.9746 113.695 83.584C113.227 83.1934 112.676 82.998 112.043 82.998C111.379 82.998 110.812 83.1699 110.344 83.5137C109.875 83.8574 109.539 84.3691 109.336 85.0488ZM125.367 80.2676C126.219 80.2676 127.02 80.4238 127.77 80.7363C128.527 81.0488 129.176 81.4785 129.715 82.0254C130.262 82.5645 130.691 83.2168 131.004 83.9824C131.324 84.7402 131.484 85.5488 131.484 86.4082C131.484 87.5566 131.215 88.5996 130.676 89.5371C130.145 90.4746 129.41 91.209 128.473 91.7402C127.543 92.2637 126.508 92.5254 125.367 92.5254C123.625 92.5254 122.168 91.9434 120.996 90.7793C119.824 89.6152 119.238 88.1582 119.238 86.4082C119.238 84.6582 119.824 83.1973 120.996 82.0254C122.168 80.8535 123.625 80.2676 125.367 80.2676ZM125.367 83.502C124.562 83.502 123.891 83.7793 123.352 84.334C122.82 84.8809 122.555 85.5723 122.555 86.4082C122.555 87.2207 122.82 87.9043 123.352 88.459C123.891 89.0137 124.562 89.291 125.367 89.291C126.156 89.291 126.82 89.0137 127.359 88.459C127.898 87.9043 128.168 87.2207 128.168 86.4082C128.168 85.5723 127.898 84.8809 127.359 84.334C126.828 83.7793 126.164 83.502 125.367 83.502ZM147 75.4863H150.387V92.291H147V90.6152C146.141 91.8887 144.891 92.5254 143.25 92.5254C142.25 92.5254 141.328 92.252 140.484 91.7051C139.648 91.1504 138.988 90.4043 138.504 89.4668C138.02 88.5215 137.777 87.4941 137.777 86.3848C137.777 85.2754 138.02 84.252 138.504 83.3145C138.988 82.3691 139.648 81.627 140.484 81.0879C141.328 80.541 142.25 80.2676 143.25 80.2676C144.891 80.2676 146.141 80.9082 147 82.1895V75.4863ZM144.047 89.291C144.875 89.291 145.574 89.0137 146.145 88.459C146.715 87.8965 147 87.2051 147 86.3848C147 85.5723 146.715 84.8848 146.145 84.3223C145.574 83.7598 144.875 83.4785 144.047 83.4785C143.234 83.4785 142.539 83.7637 141.961 84.334C141.383 84.8965 141.094 85.5801 141.094 86.3848C141.094 87.1973 141.379 87.8848 141.949 88.4473C142.527 89.0098 143.227 89.291 144.047 89.291ZM164.051 85.998C164.051 86.4121 164.027 86.8145 163.98 87.2051H155.227C155.344 87.9707 155.676 88.584 156.223 89.0449C156.77 89.498 157.438 89.7246 158.227 89.7246C158.875 89.7246 159.402 89.5996 159.809 89.3496C160.223 89.0918 160.477 88.752 160.57 88.3301H163.887C163.691 89.5957 163.086 90.6113 162.07 91.377C161.055 92.1426 159.805 92.5254 158.32 92.5254C157.18 92.5254 156.133 92.2559 155.18 91.7168C154.234 91.1699 153.488 90.4238 152.941 89.4785C152.395 88.5254 152.121 87.4785 152.121 86.3379C152.121 84.627 152.711 83.1895 153.891 82.0254C155.078 80.8535 156.531 80.2676 158.25 80.2676C159.297 80.2676 160.266 80.5176 161.156 81.0176C162.047 81.5176 162.75 82.209 163.266 83.0918C163.789 83.9746 164.051 84.9434 164.051 85.998ZM155.391 85.0488H160.523C160.477 84.4629 160.219 83.9746 159.75 83.584C159.281 83.1934 158.73 82.998 158.098 82.998C157.434 82.998 156.867 83.1699 156.398 83.5137C155.93 83.8574 155.594 84.3691 155.391 85.0488ZM61.5 118.525C59.7578 118.525 58.3008 117.943 57.1289 116.779C55.957 115.615 55.3711 114.158 55.3711 112.408C55.3711 110.658 55.957 109.197 57.1289 108.025C58.3008 106.854 59.7578 106.268 61.5 106.268C62.9766 106.268 64.2656 106.717 65.3672 107.615C66.4688 108.514 67.0977 109.639 67.2539 110.99H63.8203C63.7031 110.553 63.4258 110.197 62.9883 109.924C62.5586 109.643 62.0625 109.502 61.5 109.502C60.6953 109.502 60.0234 109.779 59.4844 110.334C58.9531 110.881 58.6875 111.572 58.6875 112.408C58.6875 113.221 58.9531 113.904 59.4844 114.459C60.0234 115.014 60.6953 115.291 61.5 115.291C62.0625 115.291 62.5625 115.143 63 114.846C63.4453 114.549 63.7266 114.17 63.8438 113.709H67.2773C67.1914 114.631 66.8789 115.463 66.3398 116.205C65.8008 116.939 65.1055 117.51 64.2539 117.916C63.4102 118.322 62.4922 118.525 61.5 118.525ZM74.5547 106.268C75.4062 106.268 76.207 106.424 76.957 106.736C77.7148 107.049 78.3633 107.479 78.9023 108.025C79.4492 108.564 79.8789 109.217 80.1914 109.982C80.5117 110.74 80.6719 111.549 80.6719 112.408C80.6719 113.557 80.4023 114.6 79.8633 115.537C79.332 116.475 78.5977 117.209 77.6602 117.74C76.7305 118.264 75.6953 118.525 74.5547 118.525C72.8125 118.525 71.3555 117.943 70.1836 116.779C69.0117 115.615 68.4258 114.158 68.4258 112.408C68.4258 110.658 69.0117 109.197 70.1836 108.025C71.3555 106.854 72.8125 106.268 74.5547 106.268ZM74.5547 109.502C73.75 109.502 73.0781 109.779 72.5391 110.334C72.0078 110.881 71.7422 111.572 71.7422 112.408C71.7422 113.221 72.0078 113.904 72.5391 114.459C73.0781 115.014 73.75 115.291 74.5547 115.291C75.3438 115.291 76.0078 115.014 76.5469 114.459C77.0859 113.904 77.3555 113.221 77.3555 112.408C77.3555 111.572 77.0859 110.881 76.5469 110.334C76.0156 109.779 75.3516 109.502 74.5547 109.502ZM89.1562 106.268C90.6641 106.268 91.8477 106.744 92.707 107.697C93.5664 108.643 93.9961 109.951 93.9961 111.623V118.291H90.6094V112.057C90.6094 111.291 90.3945 110.674 89.9648 110.205C89.543 109.736 88.9844 109.502 88.2891 109.502C87.5859 109.502 87.0195 109.736 86.5898 110.205C86.168 110.666 85.957 111.283 85.957 112.057V118.291H82.5703V106.502H85.957V108.049C86.7383 106.861 87.8047 106.268 89.1562 106.268ZM102 118.525C100.258 118.525 98.8008 117.943 97.6289 116.779C96.457 115.615 95.8711 114.158 95.8711 112.408C95.8711 110.658 96.457 109.197 97.6289 108.025C98.8008 106.854 100.258 106.268 102 106.268C103.477 106.268 104.766 106.717 105.867 107.615C106.969 108.514 107.598 109.639 107.754 110.99H104.32C104.203 110.553 103.926 110.197 103.488 109.924C103.059 109.643 102.562 109.502 102 109.502C101.195 109.502 100.523 109.779 99.9844 110.334C99.4531 110.881 99.1875 111.572 99.1875 112.408C99.1875 113.221 99.4531 113.904 99.9844 114.459C100.523 115.014 101.195 115.291 102 115.291C102.562 115.291 103.062 115.143 103.5 114.846C103.945 114.549 104.227 114.17 104.344 113.709H107.777C107.691 114.631 107.379 115.463 106.84 116.205C106.301 116.939 105.605 117.51 104.754 117.916C103.91 118.322 102.992 118.525 102 118.525ZM116.098 106.268C116.34 106.268 116.719 106.314 117.234 106.408V109.479C116.758 109.369 116.348 109.314 116.004 109.314C115.137 109.314 114.426 109.584 113.871 110.123C113.324 110.654 113.051 111.439 113.051 112.479V118.291H109.664V106.502H113.051V107.85C113.777 106.795 114.793 106.268 116.098 106.268ZM129.41 111.998C129.41 112.412 129.387 112.814 129.34 113.205H120.586C120.703 113.971 121.035 114.584 121.582 115.045C122.129 115.498 122.797 115.725 123.586 115.725C124.234 115.725 124.762 115.6 125.168 115.35C125.582 115.092 125.836 114.752 125.93 114.33H129.246C129.051 115.596 128.445 116.611 127.43 117.377C126.414 118.143 125.164 118.525 123.68 118.525C122.539 118.525 121.492 118.256 120.539 117.717C119.594 117.17 118.848 116.424 118.301 115.479C117.754 114.525 117.48 113.479 117.48 112.338C117.48 110.627 118.07 109.189 119.25 108.025C120.438 106.854 121.891 106.268 123.609 106.268C124.656 106.268 125.625 106.518 126.516 107.018C127.406 107.518 128.109 108.209 128.625 109.092C129.148 109.975 129.41 110.943 129.41 111.998ZM120.75 111.049H125.883C125.836 110.463 125.578 109.975 125.109 109.584C124.641 109.193 124.09 108.998 123.457 108.998C122.793 108.998 122.227 109.17 121.758 109.514C121.289 109.857 120.953 110.369 120.75 111.049ZM138.527 109.725H135.633V113.439C135.633 114.049 135.816 114.506 136.184 114.811C136.559 115.115 137.055 115.268 137.672 115.268C138 115.268 138.285 115.236 138.527 115.174V118.291C138.043 118.416 137.5 118.479 136.898 118.479C135.484 118.479 134.355 118.037 133.512 117.154C132.668 116.271 132.246 115.049 132.246 113.486V109.725H130.055V106.502H132.246V103.408H135.633V106.502H138.527V109.725ZM145.5 106.268C146.352 106.268 147.152 106.424 147.902 106.736C148.66 107.049 149.309 107.479 149.848 108.025C150.395 108.564 150.824 109.217 151.137 109.982C151.457 110.74 151.617 111.549 151.617 112.408C151.617 113.557 151.348 114.6 150.809 115.537C150.277 116.475 149.543 117.209 148.605 117.74C147.676 118.264 146.641 118.525 145.5 118.525C143.758 118.525 142.301 117.943 141.129 116.779C139.957 115.615 139.371 114.158 139.371 112.408C139.371 110.658 139.957 109.197 141.129 108.025C142.301 106.854 143.758 106.268 145.5 106.268ZM145.5 109.502C144.695 109.502 144.023 109.779 143.484 110.334C142.953 110.881 142.688 111.572 142.688 112.408C142.688 113.221 142.953 113.904 143.484 114.459C144.023 115.014 144.695 115.291 145.5 115.291C146.289 115.291 146.953 115.014 147.492 114.459C148.031 113.904 148.301 113.221 148.301 112.408C148.301 111.572 148.031 110.881 147.492 110.334C146.961 109.779 146.297 109.502 145.5 109.502Z" fill="#EDF6FF"/>
</svg>
