<svg width="207" height="113" viewBox="0 0 207 113" fill="none" xmlns="http://www.w3.org/2000/svg">
<path d="M101.318 6.62961C102.289 4.84968 102.774 3.95972 103.5 3.95972C104.226 3.95972 104.712 4.84968 105.683 6.62961L105.934 7.0901C106.21 7.5959 106.348 7.8488 106.563 8.01567C106.778 8.18253 107.046 8.24447 107.582 8.36835L108.07 8.48114C109.956 8.91709 110.898 9.13506 111.123 9.87211C111.347 10.6092 110.704 11.3772 109.419 12.9132L109.086 13.3105C108.721 13.747 108.538 13.9653 108.456 14.2353C108.374 14.5053 108.401 14.7964 108.457 15.3788L108.507 15.909C108.701 17.9584 108.799 18.983 108.211 19.4386C107.624 19.8941 106.741 19.4788 104.975 18.6481L104.519 18.4332C104.017 18.1972 103.766 18.0792 103.5 18.0792C103.234 18.0792 102.983 18.1972 102.482 18.4332L102.025 18.6481C100.259 19.4788 99.3764 19.8941 98.7891 19.4386C98.2018 18.983 98.299 17.9584 98.4934 15.909L98.5437 15.3788C98.5989 14.7964 98.6265 14.5053 98.5443 14.2353C98.4622 13.9653 98.2795 13.747 97.9142 13.3105L97.5816 12.9132C96.296 11.3772 95.6532 10.6092 95.8775 9.87211C96.1018 9.13506 97.0447 8.91709 98.9305 8.48114L99.4183 8.36836C99.9542 8.24447 100.222 8.18253 100.437 8.01567C100.652 7.8488 100.79 7.5959 101.066 7.0901L101.318 6.62961Z" stroke="#0451FF" stroke-width="2"/>
<path d="M117.742 15.0862C118.228 14.1962 118.47 13.7512 118.833 13.7512C119.196 13.7512 119.439 14.1962 119.925 15.0862L120.05 15.3164C120.188 15.5693 120.257 15.6958 120.365 15.7792C120.472 15.8626 120.606 15.8936 120.874 15.9555L121.118 16.0119C122.061 16.2299 122.532 16.3389 122.645 16.7074C122.757 17.0759 122.435 17.4599 121.793 18.2279L121.626 18.4266C121.444 18.6449 121.352 18.754 121.311 18.889C121.27 19.024 121.284 19.1696 121.312 19.4608L121.337 19.7259C121.434 20.7505 121.483 21.2629 121.189 21.4906C120.895 21.7184 120.454 21.5107 119.571 21.0954L119.343 20.988C119.092 20.87 118.966 20.811 118.833 20.811C118.7 20.811 118.575 20.87 118.324 20.988L118.096 21.0954C117.213 21.5107 116.771 21.7184 116.478 21.4906C116.184 21.2629 116.233 20.7505 116.33 19.7259L116.355 19.4608C116.383 19.1696 116.397 19.024 116.355 18.889C116.314 18.754 116.223 18.6449 116.04 18.4266L115.874 18.2279C115.231 17.4599 114.91 17.0759 115.022 16.7074C115.134 16.3389 115.606 16.2299 116.548 16.0119L116.792 15.9555C117.06 15.8936 117.194 15.8626 117.302 15.7792C117.409 15.6958 117.478 15.5693 117.616 15.3164L117.742 15.0862Z" stroke="#0451FF" stroke-width="2"/>
<path d="M87.0755 15.0862C87.5611 14.1962 87.8039 13.7512 88.1668 13.7512C88.5298 13.7512 88.7726 14.1962 89.2581 15.0862L89.3837 15.3164C89.5217 15.5693 89.5907 15.6958 89.6983 15.7792C89.8058 15.8626 89.9398 15.8936 90.2077 15.9555L90.4517 16.0119C91.3946 16.2299 91.866 16.3389 91.9782 16.7074C92.0903 17.0759 91.7689 17.4599 91.1261 18.2279L90.9598 18.4266C90.7772 18.6449 90.6858 18.754 90.6447 18.889C90.6037 19.024 90.6175 19.1696 90.6451 19.4608L90.6702 19.7259C90.7674 20.7505 90.816 21.2629 90.5224 21.4906C90.2287 21.7184 89.7873 21.5107 88.9045 21.0954L88.6761 20.988C88.4252 20.87 88.2998 20.811 88.1668 20.811C88.0339 20.811 87.9084 20.87 87.6576 20.988L87.4292 21.0954C86.5464 21.5107 86.1049 21.7184 85.8113 21.4906C85.5177 21.2629 85.5662 20.7505 85.6634 19.7259L85.6886 19.4608C85.7162 19.1696 85.73 19.024 85.6889 18.889C85.6478 18.754 85.5565 18.6449 85.3738 18.4266L85.2075 18.2279C84.5647 17.4599 84.2433 17.0759 84.3555 16.7074C84.4677 16.3389 84.9391 16.2299 85.882 16.0119L86.1259 15.9555C86.3939 15.8936 86.5278 15.8626 86.6354 15.7792C86.743 15.6958 86.8119 15.5693 86.9499 15.3164L87.0755 15.0862Z" stroke="#0451FF" stroke-width="2"/>
<path d="M88.1665 41.9286H92.498C94.4355 41.9286 96.3939 42.1348 98.2795 42.5317C101.615 43.2338 105.127 43.3189 108.496 42.7616M106.713 36.3058C106.942 36.2786 107.163 36.2474 107.373 36.2132C109.119 35.9285 110.586 34.9748 111.928 33.9386L115.392 31.2652C116.613 30.3227 118.426 30.3225 119.647 31.2648C120.746 32.113 121.083 33.5097 120.387 34.6482C119.577 35.9758 118.435 37.6743 117.338 38.712M106.713 36.3058C106.644 36.314 106.574 36.3218 106.503 36.3292M106.713 36.3058C106.992 36.2446 107.27 36.0686 107.53 35.8364C108.763 34.737 108.841 32.8842 107.771 31.6566C107.523 31.3718 107.233 31.1342 106.91 30.9374C101.548 27.6701 93.2062 30.1586 88.1665 33.8103M106.713 36.3058C106.643 36.3211 106.573 36.3292 106.503 36.3292M106.503 36.3292C105.5 36.4345 104.326 36.4617 103.024 36.336" stroke="#0451FF" stroke-width="2" stroke-linecap="round"/>
<path d="M71.8242 78.2773C70.2227 78.2773 68.7695 77.9023 67.4648 77.1523C66.168 76.4023 65.1484 75.3672 64.4062 74.0469C63.6719 72.7266 63.3047 71.2578 63.3047 69.6406C63.3047 68.0234 63.6719 66.5547 64.4062 65.2344C65.1484 63.9141 66.168 62.8789 67.4648 62.1289C68.7695 61.3789 70.2227 61.0039 71.8242 61.0039C73.1289 61.0039 74.3633 61.2695 75.5273 61.8008C76.6914 62.3242 77.6562 63.0586 78.4219 64.0039C79.1953 64.9414 79.6602 65.9883 79.8164 67.1445H75.8555C75.6289 66.3555 75.1406 65.7109 74.3906 65.2109C73.6484 64.7109 72.793 64.4609 71.8242 64.4609C70.4414 64.4609 69.2812 64.957 68.3438 65.9492C67.4141 66.9336 66.9492 68.1641 66.9492 69.6406C66.9492 71.1172 67.4141 72.3516 68.3438 73.3438C69.2812 74.3359 70.4414 74.832 71.8242 74.832C72.8008 74.832 73.6641 74.5586 74.4141 74.0117C75.1719 73.4648 75.6602 72.7695 75.8789 71.9258H79.8633C79.543 73.793 78.6328 75.3203 77.1328 76.5078C75.6406 77.6875 73.8711 78.2773 71.8242 78.2773ZM87.3516 66.0195C88.2031 66.0195 89.0039 66.1758 89.7539 66.4883C90.5117 66.8008 91.1602 67.2305 91.6992 67.7773C92.2461 68.3164 92.6758 68.9688 92.9883 69.7344C93.3086 70.4922 93.4688 71.3008 93.4688 72.1602C93.4688 73.3086 93.1992 74.3516 92.6602 75.2891C92.1289 76.2266 91.3945 76.9609 90.457 77.4922C89.5273 78.0156 88.4922 78.2773 87.3516 78.2773C85.6094 78.2773 84.1523 77.6953 82.9805 76.5312C81.8086 75.3672 81.2227 73.9102 81.2227 72.1602C81.2227 70.4102 81.8086 68.9492 82.9805 67.7773C84.1523 66.6055 85.6094 66.0195 87.3516 66.0195ZM87.3516 69.2539C86.5469 69.2539 85.875 69.5312 85.3359 70.0859C84.8047 70.6328 84.5391 71.3242 84.5391 72.1602C84.5391 72.9727 84.8047 73.6562 85.3359 74.2109C85.875 74.7656 86.5469 75.043 87.3516 75.043C88.1406 75.043 88.8047 74.7656 89.3438 74.2109C89.8828 73.6562 90.1523 72.9727 90.1523 72.1602C90.1523 71.3242 89.8828 70.6328 89.3438 70.0859C88.8125 69.5312 88.1484 69.2539 87.3516 69.2539ZM101.953 66.0195C103.461 66.0195 104.645 66.4961 105.504 67.4492C106.363 68.3945 106.793 69.7031 106.793 71.375V78.043H103.406V71.8086C103.406 71.043 103.191 70.4258 102.762 69.957C102.34 69.4883 101.781 69.2539 101.086 69.2539C100.383 69.2539 99.8164 69.4883 99.3867 69.957C98.9648 70.418 98.7539 71.0352 98.7539 71.8086V78.043H95.3672V66.2539H98.7539V67.8008C99.5352 66.6133 100.602 66.0195 101.953 66.0195ZM116.285 69.4766H113.391V73.1914C113.391 73.8008 113.574 74.2578 113.941 74.5625C114.316 74.8672 114.812 75.0195 115.43 75.0195C115.758 75.0195 116.043 74.9883 116.285 74.9258V78.043C115.801 78.168 115.258 78.2305 114.656 78.2305C113.242 78.2305 112.113 77.7891 111.27 76.9062C110.426 76.0234 110.004 74.8008 110.004 73.2383V69.4766H107.812V66.2539H110.004V63.1602H113.391V66.2539H116.285V69.4766ZM124.582 66.0195C124.824 66.0195 125.203 66.0664 125.719 66.1602V69.2305C125.242 69.1211 124.832 69.0664 124.488 69.0664C123.621 69.0664 122.91 69.3359 122.355 69.875C121.809 70.4062 121.535 71.1914 121.535 72.2305V78.043H118.148V66.2539H121.535V67.6016C122.262 66.5469 123.277 66.0195 124.582 66.0195ZM132.094 66.0195C132.945 66.0195 133.746 66.1758 134.496 66.4883C135.254 66.8008 135.902 67.2305 136.441 67.7773C136.988 68.3164 137.418 68.9688 137.73 69.7344C138.051 70.4922 138.211 71.3008 138.211 72.1602C138.211 73.3086 137.941 74.3516 137.402 75.2891C136.871 76.2266 136.137 76.9609 135.199 77.4922C134.27 78.0156 133.234 78.2773 132.094 78.2773C130.352 78.2773 128.895 77.6953 127.723 76.5312C126.551 75.3672 125.965 73.9102 125.965 72.1602C125.965 70.4102 126.551 68.9492 127.723 67.7773C128.895 66.6055 130.352 66.0195 132.094 66.0195ZM132.094 69.2539C131.289 69.2539 130.617 69.5312 130.078 70.0859C129.547 70.6328 129.281 71.3242 129.281 72.1602C129.281 72.9727 129.547 73.6562 130.078 74.2109C130.617 74.7656 131.289 75.043 132.094 75.043C132.883 75.043 133.547 74.7656 134.086 74.2109C134.625 73.6562 134.895 72.9727 134.895 72.1602C134.895 71.3242 134.625 70.6328 134.086 70.0859C133.555 69.5312 132.891 69.2539 132.094 69.2539ZM143.309 61.2383V78.043H139.922V61.2383H143.309ZM51.0117 92.2383H54.3984V109.043H51.0117V107.367C50.1523 108.641 48.9023 109.277 47.2617 109.277C46.2617 109.277 45.3398 109.004 44.4961 108.457C43.6602 107.902 43 107.156 42.5156 106.219C42.0312 105.273 41.7891 104.246 41.7891 103.137C41.7891 102.027 42.0312 101.004 42.5156 100.066C43 99.1211 43.6602 98.3789 44.4961 97.8398C45.3398 97.293 46.2617 97.0195 47.2617 97.0195C48.9023 97.0195 50.1523 97.6602 51.0117 98.9414V92.2383ZM48.0586 106.043C48.8867 106.043 49.5859 105.766 50.1562 105.211C50.7266 104.648 51.0117 103.957 51.0117 103.137C51.0117 102.324 50.7266 101.637 50.1562 101.074C49.5859 100.512 48.8867 100.23 48.0586 100.23C47.2461 100.23 46.5508 100.516 45.9727 101.086C45.3945 101.648 45.1055 102.332 45.1055 103.137C45.1055 103.949 45.3906 104.637 45.9609 105.199C46.5391 105.762 47.2383 106.043 48.0586 106.043ZM68.0625 102.75C68.0625 103.164 68.0391 103.566 67.9922 103.957H59.2383C59.3555 104.723 59.6875 105.336 60.2344 105.797C60.7812 106.25 61.4492 106.477 62.2383 106.477C62.8867 106.477 63.4141 106.352 63.8203 106.102C64.2344 105.844 64.4883 105.504 64.582 105.082H67.8984C67.7031 106.348 67.0977 107.363 66.082 108.129C65.0664 108.895 63.8164 109.277 62.332 109.277C61.1914 109.277 60.1445 109.008 59.1914 108.469C58.2461 107.922 57.5 107.176 56.9531 106.23C56.4062 105.277 56.1328 104.23 56.1328 103.09C56.1328 101.379 56.7227 99.9414 57.9023 98.7773C59.0898 97.6055 60.543 97.0195 62.2617 97.0195C63.3086 97.0195 64.2773 97.2695 65.168 97.7695C66.0586 98.2695 66.7617 98.9609 67.2773 99.8438C67.8008 100.727 68.0625 101.695 68.0625 102.75ZM59.4023 101.801H64.5352C64.4883 101.215 64.2305 100.727 63.7617 100.336C63.293 99.9453 62.7422 99.75 62.1094 99.75C61.4453 99.75 60.8789 99.9219 60.4102 100.266C59.9414 100.609 59.6055 101.121 59.4023 101.801ZM87.8906 109.277C86.2891 109.277 84.8359 108.902 83.5312 108.152C82.2344 107.402 81.2148 106.367 80.4727 105.047C79.7383 103.727 79.3711 102.258 79.3711 100.641C79.3711 99.0234 79.7383 97.5547 80.4727 96.2344C81.2148 94.9141 82.2344 93.8789 83.5312 93.1289C84.8359 92.3789 86.2891 92.0039 87.8906 92.0039C89.1953 92.0039 90.4297 92.2695 91.5938 92.8008C92.7578 93.3242 93.7227 94.0586 94.4883 95.0039C95.2617 95.9414 95.7266 96.9883 95.8828 98.1445H91.9219C91.6953 97.3555 91.207 96.7109 90.457 96.2109C89.7148 95.7109 88.8594 95.4609 87.8906 95.4609C86.5078 95.4609 85.3477 95.957 84.4102 96.9492C83.4805 97.9336 83.0156 99.1641 83.0156 100.641C83.0156 102.117 83.4805 103.352 84.4102 104.344C85.3477 105.336 86.5078 105.832 87.8906 105.832C88.8672 105.832 89.7305 105.559 90.4805 105.012C91.2383 104.465 91.7266 103.77 91.9453 102.926H95.9297C95.6094 104.793 94.6992 106.32 93.1992 107.508C91.707 108.688 89.9375 109.277 87.8906 109.277ZM106.512 97.2539H109.898V109.043H106.512V107.367C105.652 108.641 104.402 109.277 102.762 109.277C101.762 109.277 100.84 109.004 99.9961 108.457C99.1602 107.902 98.5 107.156 98.0156 106.219C97.5312 105.273 97.2891 104.246 97.2891 103.137C97.2891 102.027 97.5312 101.004 98.0156 100.066C98.5 99.1211 99.1602 98.3789 99.9961 97.8398C100.84 97.293 101.762 97.0195 102.762 97.0195C104.402 97.0195 105.652 97.6602 106.512 98.9414V97.2539ZM103.559 106.043C104.387 106.043 105.086 105.766 105.656 105.211C106.227 104.648 106.512 103.957 106.512 103.137C106.512 102.324 106.227 101.637 105.656 101.074C105.086 100.512 104.387 100.23 103.559 100.23C102.746 100.23 102.051 100.516 101.473 101.086C100.895 101.648 100.605 102.332 100.605 103.137C100.605 103.949 100.891 104.637 101.461 105.199C102.039 105.762 102.738 106.043 103.559 106.043ZM115.641 92.2383V109.043H112.254V92.2383H115.641ZM118.277 92.1562C118.684 91.75 119.168 91.5469 119.73 91.5469C120.293 91.5469 120.777 91.75 121.184 92.1562C121.59 92.5547 121.793 93.0312 121.793 93.5859C121.793 94.1484 121.59 94.6328 121.184 95.0391C120.777 95.4453 120.293 95.6484 119.73 95.6484C119.168 95.6484 118.684 95.4453 118.277 95.0391C117.871 94.6328 117.668 94.1484 117.668 93.5859C117.668 93.0312 117.871 92.5547 118.277 92.1562ZM118.043 97.2539H121.43V109.043H118.043V97.2539ZM132.551 92.2383H135.938V109.043H132.551V107.367C131.691 108.641 130.441 109.277 128.801 109.277C127.801 109.277 126.879 109.004 126.035 108.457C125.199 107.902 124.539 107.156 124.055 106.219C123.57 105.273 123.328 104.246 123.328 103.137C123.328 102.027 123.57 101.004 124.055 100.066C124.539 99.1211 125.199 98.3789 126.035 97.8398C126.879 97.293 127.801 97.0195 128.801 97.0195C130.441 97.0195 131.691 97.6602 132.551 98.9414V92.2383ZM129.598 106.043C130.426 106.043 131.125 105.766 131.695 105.211C132.266 104.648 132.551 103.957 132.551 103.137C132.551 102.324 132.266 101.637 131.695 101.074C131.125 100.512 130.426 100.23 129.598 100.23C128.785 100.23 128.09 100.516 127.512 101.086C126.934 101.648 126.645 102.332 126.645 103.137C126.645 103.949 126.93 104.637 127.5 105.199C128.078 105.762 128.777 106.043 129.598 106.043ZM146.895 97.2539H150.281V109.043H146.895V107.367C146.035 108.641 144.785 109.277 143.145 109.277C142.145 109.277 141.223 109.004 140.379 108.457C139.543 107.902 138.883 107.156 138.398 106.219C137.914 105.273 137.672 104.246 137.672 103.137C137.672 102.027 137.914 101.004 138.398 100.066C138.883 99.1211 139.543 98.3789 140.379 97.8398C141.223 97.293 142.145 97.0195 143.145 97.0195C144.785 97.0195 146.035 97.6602 146.895 98.9414V97.2539ZM143.941 106.043C144.77 106.043 145.469 105.766 146.039 105.211C146.609 104.648 146.895 103.957 146.895 103.137C146.895 102.324 146.609 101.637 146.039 101.074C145.469 100.512 144.77 100.23 143.941 100.23C143.129 100.23 142.434 100.516 141.855 101.086C141.277 101.648 140.988 102.332 140.988 103.137C140.988 103.949 141.273 104.637 141.844 105.199C142.422 105.762 143.121 106.043 143.941 106.043ZM161.355 92.2383H164.742V109.043H161.355V107.367C160.496 108.641 159.246 109.277 157.605 109.277C156.605 109.277 155.684 109.004 154.84 108.457C154.004 107.902 153.344 107.156 152.859 106.219C152.375 105.273 152.133 104.246 152.133 103.137C152.133 102.027 152.375 101.004 152.859 100.066C153.344 99.1211 154.004 98.3789 154.84 97.8398C155.684 97.293 156.605 97.0195 157.605 97.0195C159.246 97.0195 160.496 97.6602 161.355 98.9414V92.2383ZM158.402 106.043C159.23 106.043 159.93 105.766 160.5 105.211C161.07 104.648 161.355 103.957 161.355 103.137C161.355 102.324 161.07 101.637 160.5 101.074C159.93 100.512 159.23 100.23 158.402 100.23C157.59 100.23 156.895 100.516 156.316 101.086C155.738 101.648 155.449 102.332 155.449 103.137C155.449 103.949 155.734 104.637 156.305 105.199C156.883 105.762 157.582 106.043 158.402 106.043Z" fill="#0451FF"/>
</svg>
