<svg width="96" height="89" viewBox="0 0 96 89" fill="none" xmlns="http://www.w3.org/2000/svg">
<g clip-path="url(#clip0_17_185)">
<path d="M95.8006 32.8598L70.8902 17.4405L70.7393 50.463H95.8006V32.8598Z" fill="#33455E"/>
<path d="M0.374464 19.5631L0.312988 50.4618H68.6465V45.9378V45.0897V43.9943L68.6381 17.5274L39.2889 27.6612L39.2274 43.9943H15.6834V37.9333V35.1627V20.2491L66.7016 3.24118V5.39424L68.6465 5.35093V2.94218L68.6912 0.491516L0.374464 19.5631Z" fill="#33455E"/>
<path d="M68.6475 5.35093L70.1508 5.46969V1.11047L68.6922 0.491516L68.6475 5.35093Z" fill="#33455E"/>
<path d="M19.774 22.7135L15.6816 20.2517L66.7012 3.24377V3.6294L19.774 22.7135Z" fill="#33455E"/>
<path d="M19.774 43.9983V22.715L15.6816 20.2532V43.9983H19.774Z" fill="#33455E"/>
</g>
<path d="M35.9419 72.4833C36.033 73.012 36.0786 73.6272 36.0786 74.329C36.0786 76.1337 35.6593 77.7561 34.8208 79.1962C33.9914 80.6363 32.8521 81.7529 31.4028 82.5458C29.9627 83.3388 28.3494 83.7353 26.563 83.7353C25.1776 83.7353 23.8696 83.4755 22.6392 82.956C21.4178 82.4365 20.3696 81.7301 19.4946 80.8369C18.6287 79.9436 17.9406 78.8727 17.4302 77.624C16.9289 76.3753 16.6782 75.0445 16.6782 73.6318C16.6782 72.2281 16.9289 70.9065 17.4302 69.6669C17.9406 68.4182 18.6333 67.3518 19.5083 66.4677C20.3833 65.5745 21.4315 64.8727 22.6528 64.3622C23.8833 63.8427 25.1867 63.5829 26.563 63.5829C27.994 63.5829 29.3657 63.8792 30.6782 64.4716C31.9998 65.0641 33.0981 65.8525 33.9731 66.8369C34.8573 67.8212 35.4178 68.8831 35.6548 70.0224H31.9634C31.6079 69.0654 30.9152 68.2861 29.8853 67.6845C28.8644 67.0738 27.757 66.7685 26.563 66.7685C24.7218 66.7685 23.1769 67.4247 21.9282 68.7372C20.6886 70.0497 20.0688 71.6813 20.0688 73.6318C20.0688 74.926 20.3514 76.1018 20.9165 77.1591C21.4907 78.2073 22.2882 79.0367 23.3091 79.6474C24.339 80.249 25.4966 80.5497 26.7817 80.5497C28.313 80.5497 29.6209 80.0986 30.7056 79.1962C31.7993 78.2848 32.4784 77.1044 32.7427 75.6552H26.6177V72.4833H35.9419ZM40.2075 71.54C41.5656 70.1728 43.2472 69.4892 45.2524 69.4892C47.2576 69.4892 48.9438 70.1728 50.311 71.54C51.6782 72.9072 52.3618 74.6025 52.3618 76.6259C52.3618 78.6494 51.6782 80.3401 50.311 81.6982C48.9438 83.0563 47.2576 83.7353 45.2524 83.7353C43.2472 83.7353 41.5656 83.0563 40.2075 81.6982C38.8494 80.3401 38.1704 78.6494 38.1704 76.6259C38.1704 74.6025 38.8494 72.9072 40.2075 71.54ZM48.1235 73.6728C47.3488 72.8798 46.3918 72.4833 45.2524 72.4833C44.1131 72.4833 43.1606 72.8798 42.395 73.6728C41.6294 74.4658 41.2466 75.4501 41.2466 76.6259C41.2466 77.7926 41.6294 78.7724 42.395 79.5654C43.1698 80.3492 44.1222 80.7411 45.2524 80.7411C46.3918 80.7411 47.3488 80.3447 48.1235 79.5517C48.8983 78.7587 49.2856 77.7835 49.2856 76.6259C49.2856 75.4501 48.8983 74.4658 48.1235 73.6728ZM65.3911 69.7763H68.5356V83.4619H65.3911V81.0556C64.8898 81.9215 64.229 82.5869 63.4087 83.0517C62.5884 83.5074 61.6359 83.7353 60.5513 83.7353C59.3573 83.7353 58.259 83.4208 57.2563 82.7919C56.2537 82.1539 55.4608 81.288 54.8774 80.1943C54.2941 79.0914 54.0024 77.8928 54.0024 76.5986C54.0024 75.3043 54.2941 74.1103 54.8774 73.0165C55.4608 71.9228 56.2537 71.0615 57.2563 70.4326C58.259 69.8036 59.3573 69.4892 60.5513 69.4892C61.6359 69.4892 62.5884 69.7216 63.4087 70.1865C64.229 70.6513 64.8898 71.3167 65.3911 72.1826V69.7763ZM61.2212 80.7685C62.4061 80.7685 63.395 80.372 64.188 79.579C64.9901 78.777 65.3911 77.7835 65.3911 76.5986C65.3911 75.4228 64.9901 74.4384 64.188 73.6454C63.395 72.8525 62.4061 72.456 61.2212 72.456C60.0636 72.456 59.0838 72.8616 58.2817 73.6728C57.4797 74.4749 57.0786 75.4501 57.0786 76.5986C57.0786 77.7652 57.4797 78.7542 58.2817 79.5654C59.0838 80.3675 60.0636 80.7685 61.2212 80.7685ZM78.6392 69.4892C78.9399 69.4892 79.3729 69.5439 79.938 69.6533V72.5107C79.4093 72.3831 78.9491 72.3193 78.5571 72.3193C77.5272 72.3193 76.6659 72.6611 75.9731 73.3447C75.2896 74.0283 74.9478 74.9625 74.9478 76.1474V83.4619H71.8442V69.7763H74.9478V71.5947C75.8136 70.191 77.0441 69.4892 78.6392 69.4892Z" fill="#33455E"/>
<defs>
<clipPath id="clip0_17_185">
<rect width="95.4878" height="49.9703" fill="white" transform="translate(0.312988 0.491516)"/>
</clipPath>
</defs>
</svg>
