<svg width="58" height="100" viewBox="0 0 58 100" fill="none" xmlns="http://www.w3.org/2000/svg">
<g clip-path="url(#clip0_17_199)">
<path d="M57.9042 47.6124H48.5012C48.5012 47.6124 48.5012 31.7852 48.4939 24.1064C48.5036 23.7361 48.438 23.3677 48.301 23.0236C48.0295 22.4125 47.4908 22.1264 46.8273 22.0907C46.5631 22.0771 46.3032 22.0907 46.0338 22.0907H3.75098L28.9876 0.740733C29.2674 0.503849 29.4267 0.522725 29.6961 0.750176C38.4476 8.15369 47.2039 15.5502 55.9651 22.9398C56.5343 23.4209 57.1129 23.8915 57.6674 24.3904C57.8004 24.5147 57.8816 24.6847 57.8948 24.8663C57.9053 32.3355 57.9042 47.6124 57.9042 47.6124Z" fill="#33455E"/>
<path d="M0.800781 25.489H19.5734V30.6061H12.0643C10.8621 30.6061 10.186 31.279 10.1871 32.4791C10.1871 41.5982 10.1955 60.3854 10.1955 60.3854H0.800781V25.489Z" fill="#33455E"/>
<path d="M32.3447 60.3817H13.5605V34.0005H19.5917V49.1202C19.5917 50.0374 19.9973 50.6736 20.7646 50.9021C21.0318 50.9706 21.3074 51.0009 21.5832 50.9922C25.0107 50.9975 32.3447 50.9922 32.3447 50.9922V60.3817Z" fill="#33455E"/>
<path d="M45.105 47.6253H35.7574C35.7512 47.4786 35.7396 47.3413 35.7396 47.206C35.7396 42.3146 35.7396 37.4197 35.7396 32.5213C35.7396 31.9972 35.6348 31.5214 35.2575 31.1325C34.8801 30.7436 34.4189 30.6084 33.8865 30.6084C30.3982 30.6126 26.9103 30.6126 23.4227 30.6084H23.0034V25.5028H45.105V47.6253Z" fill="#33455E"/>
<path d="M32.3399 47.6236H23.0112V34.0132H32.3399V47.6236Z" fill="#33455E"/>
<path d="M48.5337 51.0289H57.8791V60.3848H48.5337V51.0289Z" fill="#33455E"/>
<path d="M35.7612 51.0289H45.1077V60.3848H35.7612V51.0289Z" fill="#33455E"/>
</g>
<path d="M9.03125 73.7805C10.4076 73.7805 11.7018 74.0266 12.9141 74.5188C14.1263 75.011 15.1654 75.6855 16.0312 76.5422C16.8971 77.3899 17.5807 78.4198 18.082 79.6321C18.5833 80.8352 18.834 82.1249 18.834 83.5012C18.834 84.8958 18.5833 86.2083 18.082 87.4387C17.5807 88.6601 16.8971 89.7083 16.0312 90.5833C15.1654 91.4491 14.1263 92.1327 12.9141 92.634C11.7018 93.1353 10.4076 93.386 9.03125 93.386H2.5918V73.7805H9.03125ZM9.25 90.2551C11.0273 90.2551 12.5085 89.6125 13.6934 88.3274C14.8783 87.0422 15.4707 85.4335 15.4707 83.5012C15.4707 81.5872 14.8828 80.0149 13.707 78.7844C12.5312 77.5448 11.0456 76.925 9.25 76.925H5.87305V90.2551H9.25ZM32.041 79.6594H35.1855V92.8801C35.1855 94.7668 34.5293 96.2753 33.2168 97.4055C31.9134 98.5357 30.2454 99.1008 28.2129 99.1008C27.6296 99.1008 27.0417 99.0507 26.4492 98.9504C25.8659 98.8593 25.2689 98.6907 24.6582 98.4446C24.0475 98.1985 23.5052 97.8931 23.0312 97.5286C22.5664 97.164 22.1745 96.6855 21.8555 96.093C21.5456 95.5097 21.377 94.8489 21.3496 94.1106H24.4531C24.4896 94.8489 24.8542 95.4277 25.5469 95.8469C26.2487 96.2753 27.1055 96.4895 28.1172 96.4895C29.2201 96.4895 30.1497 96.1614 30.9062 95.5051C31.6628 94.858 32.041 94.0194 32.041 92.9895V90.6379C31.5397 91.4856 30.8789 92.1373 30.0586 92.593C29.2383 93.0487 28.2858 93.2766 27.2012 93.2766C25.3874 93.2766 23.8424 92.6021 22.5664 91.2532C21.2904 89.8951 20.6523 88.2545 20.6523 86.3313C20.6523 85.0735 20.944 83.9159 21.5273 82.8586C22.1107 81.7922 22.9036 80.9537 23.9062 80.343C24.9089 79.7232 26.0072 79.4133 27.2012 79.4133C28.2858 79.4133 29.2383 79.6412 30.0586 80.0969C30.8789 80.5435 31.5397 81.1861 32.041 82.0247V79.6594ZM27.8711 90.3645C29.0651 90.3645 30.0586 89.9817 30.8516 89.2161C31.6445 88.4504 32.041 87.4889 32.041 86.3313C32.041 85.1829 31.64 84.2258 30.8379 83.4602C30.0449 82.6855 29.056 82.2981 27.8711 82.2981C26.7135 82.2981 25.7337 82.69 24.9316 83.4739C24.1296 84.2577 23.7285 85.2102 23.7285 86.3313C23.7285 87.4615 24.125 88.4185 24.918 89.2024C25.7201 89.9771 26.7044 90.3645 27.8711 90.3645ZM49.1855 79.7004H52.3301V93.386H49.1855V90.9797C48.6842 91.8456 48.0234 92.511 47.2031 92.9758C46.3828 93.4316 45.4303 93.6594 44.3457 93.6594C43.1517 93.6594 42.0534 93.345 41.0508 92.7161C40.0482 92.078 39.2552 91.2122 38.6719 90.1184C38.0885 89.0155 37.7969 87.817 37.7969 86.5227C37.7969 85.2284 38.0885 84.0344 38.6719 82.9407C39.2552 81.8469 40.0482 80.9856 41.0508 80.3567C42.0534 79.7278 43.1517 79.4133 44.3457 79.4133C45.4303 79.4133 46.3828 79.6458 47.2031 80.1106C48.0234 80.5754 48.6842 81.2408 49.1855 82.1067V79.7004ZM45.0156 90.6926C46.2005 90.6926 47.1895 90.2961 47.9824 89.5032C48.7845 88.7011 49.1855 87.7076 49.1855 86.5227C49.1855 85.3469 48.7845 84.3625 47.9824 83.5696C47.1895 82.7766 46.2005 82.3801 45.0156 82.3801C43.8581 82.3801 42.8783 82.7857 42.0762 83.5969C41.2741 84.399 40.873 85.3743 40.873 86.5227C40.873 87.6894 41.2741 88.6783 42.0762 89.4895C42.8783 90.2916 43.8581 90.6926 45.0156 90.6926Z" fill="#33455E"/>
<defs>
<clipPath id="clip0_17_199">
<rect width="57.1038" height="59.8186" fill="white" transform="translate(0.800781 0.567383)"/>
</clipPath>
</defs>
</svg>
