<svg width="203" height="204" viewBox="0 0 203 204" fill="none" xmlns="http://www.w3.org/2000/svg">
<g clip-path="url(#clip0_280_628)">
<path d="M122.299 41.3219L106.596 56.9888L151.669 102.063L86.6466 167.085C78.3665 175.365 78.362 188.794 86.6466 197.079C94.9267 205.359 108.355 205.359 116.64 197.079L196.662 117.057C204.942 108.777 204.942 95.3481 196.662 87.0635L129.848 20.2538C129.848 20.2538 131.377 31.7332 122.303 41.3219" fill="#0451FF"/>
<path d="M81.2497 162.807L96.7225 147.371L51.6488 102.297L116.902 37.0396C125.182 28.7594 125.186 15.3307 116.902 7.04608C108.622 -1.23406 95.1929 -1.23406 86.9082 7.04608L6.88643 87.0679C-1.39371 95.348 -1.62835 109.011 6.6563 117.291L73.6961 184.349C73.6961 184.349 72.1754 172.401 81.2497 162.812" fill="#0451FF"/>
</g>
<defs>
<clipPath id="clip0_280_628">
<rect width="202.315" height="202.455" fill="white" transform="translate(0.560303 0.83725)"/>
</clipPath>
</defs>
</svg>



