<svg width="1381" height="405" viewBox="0 0 1381 405" fill="none" xmlns="http://www.w3.org/2000/svg">
<g clip-path="url(#clip0_471_164)">
<path d="M235.977 87.319L206.201 117.027L291.67 202.495L168.374 325.792C152.673 341.493 152.664 366.956 168.374 382.666C184.075 398.366 209.538 398.366 225.248 382.666L376.985 230.928C392.686 215.227 392.686 189.764 376.985 174.054L250.292 47.3696C250.292 47.3696 253.192 69.1369 235.986 87.319" fill="white"/>
<path d="M158.141 317.68L187.48 288.409L102.011 202.94L225.744 79.1992C241.445 63.4984 241.453 38.0348 225.744 22.3254C210.043 6.6246 184.58 6.6246 168.87 22.3254L17.1326 174.063C1.43181 189.764 0.98688 215.672 16.6963 231.373L143.817 358.528C143.817 358.528 140.934 335.871 158.141 317.689" fill="white"/>
</g>
<path d="M1366.4 172.362C1368.42 172.362 1371.57 172.752 1375.86 173.532V199.086C1371.9 198.176 1368.48 197.721 1365.62 197.721C1358.4 197.721 1352.49 199.964 1347.87 204.451C1343.32 208.872 1341.04 215.407 1341.04 224.055V272.431H1312.86V174.313H1341.04V185.529C1347.09 176.751 1355.54 172.362 1366.4 172.362Z" fill="white"/>
<path d="M1264.87 174.313H1293.06V272.432H1264.87V259.46C1258.69 269.408 1249.85 274.382 1238.34 274.382C1225.79 274.382 1215.91 270.416 1208.69 262.483C1201.54 254.55 1197.96 243.627 1197.96 229.712V174.313H1226.15V226.103C1226.15 232.605 1227.91 237.807 1231.42 241.709C1234.93 245.545 1239.64 247.463 1245.56 247.463C1251.35 247.463 1255.99 245.545 1259.51 241.709C1263.08 237.807 1264.87 232.605 1264.87 226.103V174.313Z" fill="white"/>
<path d="M1145.68 274.382C1132.75 274.382 1122.18 271.293 1113.99 265.116C1105.86 258.874 1101.31 250.259 1100.33 239.27H1127.35C1127.61 242.586 1129.33 245.252 1132.52 247.268C1135.7 249.283 1139.64 250.291 1144.32 250.291C1148.48 250.291 1151.7 249.641 1153.97 248.341C1156.32 247.04 1157.49 245.219 1157.49 242.879C1157.49 240.733 1156.48 238.977 1154.46 237.612C1152.45 236.246 1149.81 235.239 1146.56 234.588C1143.31 233.873 1139.7 233.19 1135.74 232.54C1131.83 231.89 1127.93 230.98 1124.03 229.809C1120.13 228.639 1116.55 227.143 1113.3 225.323C1110.05 223.502 1107.42 220.836 1105.4 217.325C1103.39 213.749 1102.38 209.49 1102.38 204.548C1102.38 195.25 1105.89 187.577 1112.91 181.53C1120 175.418 1129.46 172.362 1141.3 172.362C1152.48 172.362 1162.07 175.223 1170.07 180.945C1178.07 186.667 1182.65 194.73 1183.82 205.133H1155.44C1155.24 202.532 1153.81 200.322 1151.15 198.501C1148.48 196.68 1145 195.77 1140.71 195.77C1137.33 195.77 1134.6 196.355 1132.52 197.526C1130.5 198.631 1129.49 200.289 1129.49 202.5C1129.49 204.516 1130.5 206.141 1132.52 207.377C1134.6 208.547 1137.26 209.425 1140.52 210.01C1143.77 210.595 1147.34 211.18 1151.24 211.766C1155.15 212.351 1159.05 213.261 1162.95 214.496C1166.91 215.732 1170.52 217.39 1173.77 219.471C1177.03 221.486 1179.66 224.477 1181.67 228.444C1183.76 232.41 1184.8 237.157 1184.8 242.684C1184.8 251.657 1181.02 259.199 1173.48 265.311C1166 271.358 1156.74 274.382 1145.68 274.382Z" fill="white"/>
<path d="M1090.97 220.056C1090.97 223.502 1090.77 226.851 1090.38 230.102H1017.53C1018.5 236.474 1021.26 241.578 1025.82 245.415C1030.37 249.186 1035.93 251.071 1042.49 251.071C1047.89 251.071 1052.28 250.031 1055.66 247.95C1059.11 245.805 1061.22 242.976 1062 239.465H1089.6C1087.98 249.999 1082.94 258.451 1074.49 264.824C1066.03 271.196 1055.63 274.382 1043.27 274.382C1033.78 274.382 1025.07 272.139 1017.14 267.652C1009.27 263.101 1003.06 256.891 998.507 249.023C993.955 241.091 991.679 232.378 991.679 222.884C991.679 208.644 996.588 196.68 1006.41 186.992C1016.29 177.239 1028.38 172.362 1042.69 172.362C1051.4 172.362 1059.46 174.443 1066.88 178.604C1074.29 182.766 1080.14 188.52 1084.43 195.868C1088.79 203.215 1090.97 211.278 1090.97 220.056ZM1018.89 212.156H1061.61C1061.22 207.279 1059.07 203.215 1055.17 199.964C1051.27 196.713 1046.69 195.087 1041.42 195.087C1035.89 195.087 1031.18 196.518 1027.28 199.379C1023.38 202.24 1020.58 206.499 1018.89 212.156Z" fill="white"/>
<path d="M980.17 172.362C982.186 172.362 985.34 172.752 989.631 173.532V199.086C985.665 198.176 982.251 197.721 979.39 197.721C972.173 197.721 966.256 199.964 961.639 204.451C957.087 208.872 954.812 215.407 954.812 224.055V272.431H926.625V174.313H954.812V185.529C960.859 176.751 969.312 172.362 980.17 172.362Z" fill="white"/>
<path d="M862.838 274.382C848.338 274.382 836.211 269.538 826.458 259.849C816.705 250.161 811.828 238.034 811.828 223.47C811.828 208.905 816.705 196.745 826.458 186.992C836.211 177.239 848.338 172.362 862.838 172.362C875.127 172.362 885.856 176.101 895.024 183.578C904.192 191.056 909.426 200.419 910.727 211.668H882.149C881.174 208.027 878.866 205.068 875.225 202.792C871.648 200.452 867.519 199.281 862.838 199.281C856.141 199.281 850.549 201.59 846.062 206.206C841.641 210.758 839.43 216.512 839.43 223.47C839.43 230.232 841.641 235.921 846.062 240.538C850.549 245.154 856.141 247.463 862.838 247.463C867.519 247.463 871.681 246.227 875.322 243.756C879.028 241.286 881.369 238.132 882.344 234.296H910.922C910.206 241.968 907.606 248.893 903.119 255.07C898.633 261.182 892.846 265.929 885.758 269.31C878.736 272.691 871.096 274.382 862.838 274.382Z" fill="white"/>
<path d="M755.941 172.362C768.49 172.362 778.341 176.328 785.494 184.261C792.646 192.129 796.222 203.02 796.222 216.935V272.431H768.035V220.544C768.035 214.171 766.247 209.035 762.671 205.133C759.16 201.232 754.511 199.281 748.724 199.281C742.872 199.281 738.158 201.232 734.581 205.133C731.07 208.97 729.315 214.106 729.315 220.544V272.431H701.127V174.313H729.315V187.187C735.817 177.304 744.692 172.362 755.941 172.362Z" fill="white"/>
<path d="M634.415 172.362C641.502 172.362 648.167 173.663 654.409 176.263C660.716 178.864 666.113 182.441 670.6 186.992C675.151 191.479 678.727 196.908 681.328 203.28C683.994 209.587 685.327 216.317 685.327 223.47C685.327 233.028 683.084 241.708 678.597 249.511C674.176 257.314 668.064 263.426 660.261 267.847C652.523 272.204 643.908 274.382 634.415 274.382C619.915 274.382 607.788 269.538 598.035 259.849C588.281 250.161 583.405 238.034 583.405 223.47C583.405 208.905 588.281 196.745 598.035 186.992C607.788 177.239 619.915 172.362 634.415 172.362ZM634.415 199.281C627.717 199.281 622.126 201.59 617.639 206.206C613.217 210.758 611.007 216.512 611.007 223.47C611.007 230.232 613.217 235.921 617.639 240.538C622.126 245.154 627.717 247.463 634.415 247.463C640.982 247.463 646.509 245.154 650.995 240.538C655.482 235.921 657.725 230.232 657.725 223.47C657.725 216.512 655.482 210.758 650.995 206.206C646.574 201.59 641.047 199.281 634.415 199.281Z" fill="white"/>
<path d="M505.183 274.382C491.854 274.382 479.759 271.261 468.901 265.019C458.107 258.777 449.622 250.161 443.444 239.173C437.332 228.184 434.276 215.96 434.276 202.5C434.276 189.04 437.332 176.816 443.444 165.827C449.622 154.839 458.107 146.223 468.901 139.981C479.759 133.739 491.854 130.618 505.183 130.618C516.042 130.618 526.315 132.829 536.004 137.25C545.692 141.607 553.722 147.719 560.094 155.586C566.532 163.389 570.4 172.102 571.701 181.725H538.735C536.849 175.158 532.785 169.794 526.543 165.632C520.366 161.471 513.246 159.39 505.183 159.39C493.674 159.39 484.018 163.519 476.216 171.777C468.478 179.97 464.609 190.211 464.609 202.5C464.609 214.789 468.478 225.063 476.216 233.321C484.018 241.578 493.674 245.707 505.183 245.707C513.311 245.707 520.496 243.431 526.738 238.88C533.045 234.328 537.109 228.541 538.93 221.519H572.091C569.425 237.059 561.85 249.771 549.366 259.654C536.946 269.473 522.219 274.382 505.183 274.382Z" fill="white"/>
<defs>
<clipPath id="clip0_471_164">
<rect width="383.63" height="383.896" fill="white" transform="translate(5.13696 10.5522)"/>
</clipPath>
</defs>
</svg>

